%TF.GenerationSoftware,KiCad,Pcbnew,(5.1.10)-1*%
%TF.CreationDate,2022-08-27T20:58:22-04:00*%
%TF.ProjectId,VIC20HyperExpanderSMDRev3,56494332-3048-4797-9065-72457870616e,3*%
%TF.SameCoordinates,Original*%
%TF.FileFunction,Profile,NP*%
%FSLAX46Y46*%
G04 Gerber Fmt 4.6, Leading zero omitted, Abs format (unit mm)*
G04 Created by KiCad (PCBNEW (5.1.10)-1) date 2022-08-27 20:58:22*
%MOMM*%
%LPD*%
G01*
G04 APERTURE LIST*
%TA.AperFunction,Profile*%
%ADD10C,0.025400*%
%TD*%
G04 APERTURE END LIST*
D10*
%TO.C,X1*%
X86414000Y-112875610D02*
X86414000Y-53799600D01*
X188414000Y-112875980D02*
X188414000Y-53799600D01*
X86414000Y-53799600D02*
X92164000Y-53799600D01*
X188414000Y-53799600D02*
X182664000Y-53799600D01*
X92164000Y-53799600D02*
X92164000Y-48799600D01*
X92164000Y-48799600D02*
X182664000Y-48799600D01*
X182664000Y-48799600D02*
X182664000Y-53799600D01*
X182480250Y-113809730D02*
X182480250Y-122783600D01*
X173736000Y-113807470D02*
X172339000Y-113807350D01*
X173736000Y-113807720D02*
X173736000Y-122783970D01*
X171323000Y-123800090D02*
X107442000Y-123799970D01*
X91414000Y-112875610D02*
X86414000Y-112875610D01*
X183414000Y-112875980D02*
X188414000Y-112875980D01*
X92345620Y-113807230D02*
X92345620Y-122783480D01*
X172339000Y-113807350D02*
X172339000Y-122783600D01*
X106426000Y-113807720D02*
X106426000Y-122783970D01*
X106426000Y-113807470D02*
X105029000Y-113807350D01*
X104013000Y-123799600D02*
X93361620Y-123799480D01*
X105029000Y-113807350D02*
X105029000Y-122783600D01*
X181464000Y-123800090D02*
X174752000Y-123799970D01*
X171323000Y-123799600D02*
G75*
G03*
X172339000Y-122783600I0J1016000D01*
G01*
X183414000Y-112875980D02*
G75*
G03*
X182480250Y-113809730I0J-933750D01*
G01*
X181464000Y-123800090D02*
G75*
G03*
X182480000Y-122784090I0J1016000D01*
G01*
X107442000Y-123799970D02*
G75*
G02*
X106426000Y-122783970I0J1016000D01*
G01*
X174752000Y-123799970D02*
G75*
G02*
X173736000Y-122783970I0J1016000D01*
G01*
X91414000Y-112875610D02*
G75*
G02*
X92345620Y-113807230I0J-931620D01*
G01*
X93361620Y-123799480D02*
G75*
G02*
X92345620Y-122783480I0J1016000D01*
G01*
X104013000Y-123799600D02*
G75*
G03*
X105029000Y-122783600I0J1016000D01*
G01*
%TD*%
M02*
