%TF.GenerationSoftware,KiCad,Pcbnew,(5.1.10)-1*%
%TF.CreationDate,2022-08-27T20:58:22-04:00*%
%TF.ProjectId,VIC20HyperExpanderSMDRev3,56494332-3048-4797-9065-72457870616e,3*%
%TF.SameCoordinates,Original*%
%TF.FileFunction,Soldermask,Bot*%
%TF.FilePolarity,Negative*%
%FSLAX46Y46*%
G04 Gerber Fmt 4.6, Leading zero omitted, Abs format (unit mm)*
G04 Created by KiCad (PCBNEW (5.1.10)-1) date 2022-08-27 20:58:22*
%MOMM*%
%LPD*%
G01*
G04 APERTURE LIST*
%ADD10C,0.100000*%
%ADD11O,1.600000X1.600000*%
%ADD12R,1.600000X1.600000*%
%ADD13C,1.600000*%
%ADD14R,1.700000X1.700000*%
%ADD15O,1.700000X1.700000*%
%ADD16R,1.000000X1.000000*%
%ADD17C,2.000000*%
%ADD18C,4.200000*%
%ADD19R,2.250000X9.500000*%
G04 APERTURE END LIST*
D10*
%TO.C,X1*%
G36*
X92314000Y-123799600D02*
G01*
X182514000Y-123799600D01*
X182514000Y-113849600D01*
X92314000Y-113849600D01*
X92314000Y-123799600D01*
G37*
X92314000Y-123799600D02*
X182514000Y-123799600D01*
X182514000Y-113849600D01*
X92314000Y-113849600D01*
X92314000Y-123799600D01*
%TD*%
D11*
%TO.C,IC3*%
X151130000Y-87630000D03*
X184150000Y-102870000D03*
X153670000Y-87630000D03*
X181610000Y-102870000D03*
X156210000Y-87630000D03*
X179070000Y-102870000D03*
X158750000Y-87630000D03*
X176530000Y-102870000D03*
X161290000Y-87630000D03*
X173990000Y-102870000D03*
X163830000Y-87630000D03*
X171450000Y-102870000D03*
X166370000Y-87630000D03*
X168910000Y-102870000D03*
X168910000Y-87630000D03*
X166370000Y-102870000D03*
X171450000Y-87630000D03*
X163830000Y-102870000D03*
X173990000Y-87630000D03*
X161290000Y-102870000D03*
X176530000Y-87630000D03*
X158750000Y-102870000D03*
X179070000Y-87630000D03*
X156210000Y-102870000D03*
X181610000Y-87630000D03*
X153670000Y-102870000D03*
X184150000Y-87630000D03*
D12*
X151130000Y-102870000D03*
%TD*%
D11*
%TO.C,IC2*%
X151130000Y-69215000D03*
X184150000Y-84455000D03*
X153670000Y-69215000D03*
X181610000Y-84455000D03*
X156210000Y-69215000D03*
X179070000Y-84455000D03*
X158750000Y-69215000D03*
X176530000Y-84455000D03*
X161290000Y-69215000D03*
X173990000Y-84455000D03*
X163830000Y-69215000D03*
X171450000Y-84455000D03*
X166370000Y-69215000D03*
X168910000Y-84455000D03*
X168910000Y-69215000D03*
X166370000Y-84455000D03*
X171450000Y-69215000D03*
X163830000Y-84455000D03*
X173990000Y-69215000D03*
X161290000Y-84455000D03*
X176530000Y-69215000D03*
X158750000Y-84455000D03*
X179070000Y-69215000D03*
X156210000Y-84455000D03*
X181610000Y-69215000D03*
X153670000Y-84455000D03*
X184150000Y-69215000D03*
D12*
X151130000Y-84455000D03*
%TD*%
%TO.C,C1*%
X97472500Y-107950000D03*
D13*
X97472500Y-104450000D03*
%TD*%
D14*
%TO.C,JP1*%
X180340000Y-57150000D03*
D15*
X182880000Y-57150000D03*
X185420000Y-57150000D03*
%TD*%
D11*
%TO.C,SW2*%
X147320000Y-58420000D03*
X129540000Y-50800000D03*
X144780000Y-58420000D03*
X132080000Y-50800000D03*
X142240000Y-58420000D03*
X134620000Y-50800000D03*
X139700000Y-58420000D03*
X137160000Y-50800000D03*
X137160000Y-58420000D03*
X139700000Y-50800000D03*
X134620000Y-58420000D03*
X142240000Y-50800000D03*
X132080000Y-58420000D03*
X144780000Y-50800000D03*
X129540000Y-58420000D03*
D12*
X147320000Y-50800000D03*
%TD*%
%TO.C,SW3*%
X173990000Y-50800000D03*
D11*
X156210000Y-58420000D03*
X171450000Y-50800000D03*
X158750000Y-58420000D03*
X168910000Y-50800000D03*
X161290000Y-58420000D03*
X166370000Y-50800000D03*
X163830000Y-58420000D03*
X163830000Y-50800000D03*
X166370000Y-58420000D03*
X161290000Y-50800000D03*
X168910000Y-58420000D03*
X158750000Y-50800000D03*
X171450000Y-58420000D03*
X156210000Y-50800000D03*
X173990000Y-58420000D03*
%TD*%
D12*
%TO.C,SW4*%
X120650000Y-50800000D03*
D11*
X107950000Y-58420000D03*
X118110000Y-50800000D03*
X110490000Y-58420000D03*
X115570000Y-50800000D03*
X113030000Y-58420000D03*
X113030000Y-50800000D03*
X115570000Y-58420000D03*
X110490000Y-50800000D03*
X118110000Y-58420000D03*
X107950000Y-50800000D03*
X120650000Y-58420000D03*
%TD*%
D16*
%TO.C,J2*%
X125730000Y-50800000D03*
%TD*%
D14*
%TO.C,J1*%
X93345000Y-98425000D03*
D15*
X93345000Y-95885000D03*
X93345000Y-93345000D03*
X93345000Y-90805000D03*
X93345000Y-88265000D03*
X93345000Y-85725000D03*
X93345000Y-83185000D03*
X93345000Y-80645000D03*
%TD*%
D17*
%TO.C,SW1*%
X100965000Y-52015000D03*
X100965000Y-56515000D03*
X94465000Y-52015000D03*
X94465000Y-56515000D03*
%TD*%
D18*
%TO.C,X1*%
X137414000Y-83799600D03*
D19*
X127514000Y-118549600D03*
X175034000Y-118549600D03*
X159194000Y-118549600D03*
X123554000Y-118549600D03*
X155234000Y-118549600D03*
X167114000Y-118549600D03*
X171074000Y-118549600D03*
X147314000Y-118549600D03*
X163154000Y-118549600D03*
X143354000Y-118549600D03*
X119594000Y-118549600D03*
X131474000Y-118549600D03*
X115634000Y-118549600D03*
X99794000Y-118549600D03*
X151274000Y-118549600D03*
X107714000Y-118549600D03*
X103754000Y-118549600D03*
X139394000Y-118549600D03*
X135434000Y-118549600D03*
X111674000Y-118549600D03*
%TD*%
M02*
