%FSLAX45Y45*%
G04 Gerber Fmt 4.5, Leading zero omitted, Abs format (unit mm)*
G04 Created by KiCad (PCBNEW (5.1.10)-1) date 2022-08-23 18:53:12*
%MOMM*%
%LPD*%
G01*
G04 APERTURE LIST*
%ADD10C,0.200000*%
%ADD11C,0.300000*%
G04 APERTURE END LIST*
D10*
X13531400Y-8184700D02*
X13951400Y-8604700D01*
X13951400Y-8184700D02*
X13531400Y-8604700D01*
D11*
X9402679Y-11942514D02*
X9402679Y-11642514D01*
X9474107Y-11642514D01*
X9516964Y-11656800D01*
X9545536Y-11685371D01*
X9559821Y-11713943D01*
X9574107Y-11771086D01*
X9574107Y-11813943D01*
X9559821Y-11871086D01*
X9545536Y-11899657D01*
X9516964Y-11928228D01*
X9474107Y-11942514D01*
X9402679Y-11942514D01*
X9702679Y-11942514D02*
X9702679Y-11742514D01*
X9702679Y-11799657D02*
X9716964Y-11771086D01*
X9731250Y-11756800D01*
X9759821Y-11742514D01*
X9788393Y-11742514D01*
X9888393Y-11942514D02*
X9888393Y-11742514D01*
X9888393Y-11642514D02*
X9874107Y-11656800D01*
X9888393Y-11671086D01*
X9902679Y-11656800D01*
X9888393Y-11642514D01*
X9888393Y-11671086D01*
X10074107Y-11942514D02*
X10045536Y-11928228D01*
X10031250Y-11899657D01*
X10031250Y-11642514D01*
X10231250Y-11942514D02*
X10202679Y-11928228D01*
X10188393Y-11899657D01*
X10188393Y-11642514D01*
X10574107Y-11942514D02*
X10574107Y-11642514D01*
X10674107Y-11856800D01*
X10774107Y-11642514D01*
X10774107Y-11942514D01*
X11045536Y-11942514D02*
X11045536Y-11785371D01*
X11031250Y-11756800D01*
X11002679Y-11742514D01*
X10945536Y-11742514D01*
X10916964Y-11756800D01*
X11045536Y-11928228D02*
X11016964Y-11942514D01*
X10945536Y-11942514D01*
X10916964Y-11928228D01*
X10902679Y-11899657D01*
X10902679Y-11871086D01*
X10916964Y-11842514D01*
X10945536Y-11828228D01*
X11016964Y-11828228D01*
X11045536Y-11813943D01*
X11188393Y-11742514D02*
X11188393Y-12042514D01*
X11188393Y-11756800D02*
X11216964Y-11742514D01*
X11274107Y-11742514D01*
X11302678Y-11756800D01*
X11316964Y-11771086D01*
X11331250Y-11799657D01*
X11331250Y-11885371D01*
X11316964Y-11913943D01*
X11302678Y-11928228D01*
X11274107Y-11942514D01*
X11216964Y-11942514D01*
X11188393Y-11928228D01*
X11459821Y-11913943D02*
X11474107Y-11928228D01*
X11459821Y-11942514D01*
X11445536Y-11928228D01*
X11459821Y-11913943D01*
X11459821Y-11942514D01*
X11459821Y-11756800D02*
X11474107Y-11771086D01*
X11459821Y-11785371D01*
X11445536Y-11771086D01*
X11459821Y-11756800D01*
X11459821Y-11785371D01*
X8696250Y-12226800D02*
X9116250Y-12646800D01*
X9116250Y-12226800D02*
X8696250Y-12646800D01*
X9531250Y-12372514D02*
X9531250Y-12572514D01*
X9459821Y-12258228D02*
X9388393Y-12472514D01*
X9574107Y-12472514D01*
X9688393Y-12543943D02*
X9702679Y-12558228D01*
X9688393Y-12572514D01*
X9674107Y-12558228D01*
X9688393Y-12543943D01*
X9688393Y-12572514D01*
X9816964Y-12301086D02*
X9831250Y-12286800D01*
X9859821Y-12272514D01*
X9931250Y-12272514D01*
X9959821Y-12286800D01*
X9974107Y-12301086D01*
X9988393Y-12329657D01*
X9988393Y-12358228D01*
X9974107Y-12401086D01*
X9802679Y-12572514D01*
X9988393Y-12572514D01*
X10174107Y-12272514D02*
X10202679Y-12272514D01*
X10231250Y-12286800D01*
X10245536Y-12301086D01*
X10259821Y-12329657D01*
X10274107Y-12386800D01*
X10274107Y-12458228D01*
X10259821Y-12515371D01*
X10245536Y-12543943D01*
X10231250Y-12558228D01*
X10202679Y-12572514D01*
X10174107Y-12572514D01*
X10145536Y-12558228D01*
X10131250Y-12543943D01*
X10116964Y-12515371D01*
X10102679Y-12458228D01*
X10102679Y-12386800D01*
X10116964Y-12329657D01*
X10131250Y-12301086D01*
X10145536Y-12286800D01*
X10174107Y-12272514D01*
X10459821Y-12272514D02*
X10488393Y-12272514D01*
X10516964Y-12286800D01*
X10531250Y-12301086D01*
X10545536Y-12329657D01*
X10559821Y-12386800D01*
X10559821Y-12458228D01*
X10545536Y-12515371D01*
X10531250Y-12543943D01*
X10516964Y-12558228D01*
X10488393Y-12572514D01*
X10459821Y-12572514D01*
X10431250Y-12558228D01*
X10416964Y-12543943D01*
X10402679Y-12515371D01*
X10388393Y-12458228D01*
X10388393Y-12386800D01*
X10402679Y-12329657D01*
X10416964Y-12301086D01*
X10431250Y-12286800D01*
X10459821Y-12272514D01*
X10688393Y-12572514D02*
X10688393Y-12372514D01*
X10688393Y-12401086D02*
X10702679Y-12386800D01*
X10731250Y-12372514D01*
X10774107Y-12372514D01*
X10802679Y-12386800D01*
X10816964Y-12415371D01*
X10816964Y-12572514D01*
X10816964Y-12415371D02*
X10831250Y-12386800D01*
X10859821Y-12372514D01*
X10902679Y-12372514D01*
X10931250Y-12386800D01*
X10945536Y-12415371D01*
X10945536Y-12572514D01*
X11088393Y-12572514D02*
X11088393Y-12372514D01*
X11088393Y-12401086D02*
X11102679Y-12386800D01*
X11131250Y-12372514D01*
X11174107Y-12372514D01*
X11202678Y-12386800D01*
X11216964Y-12415371D01*
X11216964Y-12572514D01*
X11216964Y-12415371D02*
X11231250Y-12386800D01*
X11259821Y-12372514D01*
X11302678Y-12372514D01*
X11331250Y-12386800D01*
X11345536Y-12415371D01*
X11345536Y-12572514D01*
X11931250Y-12258228D02*
X11674107Y-12643943D01*
X12316964Y-12272514D02*
X12345536Y-12272514D01*
X12374107Y-12286800D01*
X12388393Y-12301086D01*
X12402678Y-12329657D01*
X12416964Y-12386800D01*
X12416964Y-12458228D01*
X12402678Y-12515371D01*
X12388393Y-12543943D01*
X12374107Y-12558228D01*
X12345536Y-12572514D01*
X12316964Y-12572514D01*
X12288393Y-12558228D01*
X12274107Y-12543943D01*
X12259821Y-12515371D01*
X12245536Y-12458228D01*
X12245536Y-12386800D01*
X12259821Y-12329657D01*
X12274107Y-12301086D01*
X12288393Y-12286800D01*
X12316964Y-12272514D01*
X12545536Y-12543943D02*
X12559821Y-12558228D01*
X12545536Y-12572514D01*
X12531250Y-12558228D01*
X12545536Y-12543943D01*
X12545536Y-12572514D01*
X12845536Y-12572514D02*
X12674107Y-12572514D01*
X12759821Y-12572514D02*
X12759821Y-12272514D01*
X12731250Y-12315371D01*
X12702678Y-12343943D01*
X12674107Y-12358228D01*
X13102678Y-12272514D02*
X13045536Y-12272514D01*
X13016964Y-12286800D01*
X13002678Y-12301086D01*
X12974107Y-12343943D01*
X12959821Y-12401086D01*
X12959821Y-12515371D01*
X12974107Y-12543943D01*
X12988393Y-12558228D01*
X13016964Y-12572514D01*
X13074107Y-12572514D01*
X13102678Y-12558228D01*
X13116964Y-12543943D01*
X13131250Y-12515371D01*
X13131250Y-12443943D01*
X13116964Y-12415371D01*
X13102678Y-12401086D01*
X13074107Y-12386800D01*
X13016964Y-12386800D01*
X12988393Y-12401086D01*
X12974107Y-12415371D01*
X12959821Y-12443943D01*
X13402678Y-12272514D02*
X13259821Y-12272514D01*
X13245536Y-12415371D01*
X13259821Y-12401086D01*
X13288393Y-12386800D01*
X13359821Y-12386800D01*
X13388393Y-12401086D01*
X13402678Y-12415371D01*
X13416964Y-12443943D01*
X13416964Y-12515371D01*
X13402678Y-12543943D01*
X13388393Y-12558228D01*
X13359821Y-12572514D01*
X13288393Y-12572514D01*
X13259821Y-12558228D01*
X13245536Y-12543943D01*
X13674107Y-12372514D02*
X13674107Y-12572514D01*
X13602678Y-12258228D02*
X13531250Y-12472514D01*
X13716964Y-12472514D01*
X13816964Y-12272514D02*
X13816964Y-12329657D01*
X13931250Y-12272514D02*
X13931250Y-12329657D01*
X14374107Y-12686800D02*
X14359821Y-12672514D01*
X14331250Y-12629657D01*
X14316964Y-12601086D01*
X14302678Y-12558228D01*
X14288393Y-12486800D01*
X14288393Y-12429657D01*
X14302678Y-12358228D01*
X14316964Y-12315371D01*
X14331250Y-12286800D01*
X14359821Y-12243943D01*
X14374107Y-12229657D01*
X14645536Y-12572514D02*
X14474107Y-12572514D01*
X14559821Y-12572514D02*
X14559821Y-12272514D01*
X14531250Y-12315371D01*
X14502678Y-12343943D01*
X14474107Y-12358228D01*
X15002678Y-12572514D02*
X15002678Y-12272514D01*
X15131250Y-12572514D02*
X15131250Y-12415371D01*
X15116964Y-12386800D01*
X15088393Y-12372514D01*
X15045536Y-12372514D01*
X15016964Y-12386800D01*
X15002678Y-12401086D01*
X15316964Y-12572514D02*
X15288393Y-12558228D01*
X15274107Y-12543943D01*
X15259821Y-12515371D01*
X15259821Y-12429657D01*
X15274107Y-12401086D01*
X15288393Y-12386800D01*
X15316964Y-12372514D01*
X15359821Y-12372514D01*
X15388393Y-12386800D01*
X15402678Y-12401086D01*
X15416964Y-12429657D01*
X15416964Y-12515371D01*
X15402678Y-12543943D01*
X15388393Y-12558228D01*
X15359821Y-12572514D01*
X15316964Y-12572514D01*
X15588393Y-12572514D02*
X15559821Y-12558228D01*
X15545536Y-12529657D01*
X15545536Y-12272514D01*
X15816964Y-12558228D02*
X15788393Y-12572514D01*
X15731250Y-12572514D01*
X15702678Y-12558228D01*
X15688393Y-12529657D01*
X15688393Y-12415371D01*
X15702678Y-12386800D01*
X15731250Y-12372514D01*
X15788393Y-12372514D01*
X15816964Y-12386800D01*
X15831250Y-12415371D01*
X15831250Y-12443943D01*
X15688393Y-12472514D01*
X15931250Y-12686800D02*
X15945536Y-12672514D01*
X15974107Y-12629657D01*
X15988393Y-12601086D01*
X16002678Y-12558228D01*
X16016964Y-12486800D01*
X16016964Y-12429657D01*
X16002678Y-12358228D01*
X15988393Y-12315371D01*
X15974107Y-12286800D01*
X15945536Y-12243943D01*
X15931250Y-12229657D01*
X16474107Y-12686800D02*
X16459821Y-12672514D01*
X16431250Y-12629657D01*
X16416964Y-12601086D01*
X16402678Y-12558228D01*
X16388393Y-12486800D01*
X16388393Y-12429657D01*
X16402678Y-12358228D01*
X16416964Y-12315371D01*
X16431250Y-12286800D01*
X16459821Y-12243943D01*
X16474107Y-12229657D01*
X16588393Y-12372514D02*
X16588393Y-12572514D01*
X16588393Y-12401086D02*
X16602678Y-12386800D01*
X16631250Y-12372514D01*
X16674107Y-12372514D01*
X16702678Y-12386800D01*
X16716964Y-12415371D01*
X16716964Y-12572514D01*
X16902679Y-12572514D02*
X16874107Y-12558228D01*
X16859821Y-12543943D01*
X16845536Y-12515371D01*
X16845536Y-12429657D01*
X16859821Y-12401086D01*
X16874107Y-12386800D01*
X16902679Y-12372514D01*
X16945536Y-12372514D01*
X16974107Y-12386800D01*
X16988393Y-12401086D01*
X17002679Y-12429657D01*
X17002679Y-12515371D01*
X16988393Y-12543943D01*
X16974107Y-12558228D01*
X16945536Y-12572514D01*
X16902679Y-12572514D01*
X17088393Y-12372514D02*
X17202679Y-12372514D01*
X17131250Y-12272514D02*
X17131250Y-12529657D01*
X17145536Y-12558228D01*
X17174107Y-12572514D01*
X17202679Y-12572514D01*
X17531250Y-12372514D02*
X17531250Y-12672514D01*
X17531250Y-12386800D02*
X17559821Y-12372514D01*
X17616964Y-12372514D01*
X17645536Y-12386800D01*
X17659821Y-12401086D01*
X17674107Y-12429657D01*
X17674107Y-12515371D01*
X17659821Y-12543943D01*
X17645536Y-12558228D01*
X17616964Y-12572514D01*
X17559821Y-12572514D01*
X17531250Y-12558228D01*
X17845536Y-12572514D02*
X17816964Y-12558228D01*
X17802679Y-12529657D01*
X17802679Y-12272514D01*
X18088393Y-12572514D02*
X18088393Y-12415371D01*
X18074107Y-12386800D01*
X18045536Y-12372514D01*
X17988393Y-12372514D01*
X17959821Y-12386800D01*
X18088393Y-12558228D02*
X18059821Y-12572514D01*
X17988393Y-12572514D01*
X17959821Y-12558228D01*
X17945536Y-12529657D01*
X17945536Y-12501086D01*
X17959821Y-12472514D01*
X17988393Y-12458228D01*
X18059821Y-12458228D01*
X18088393Y-12443943D01*
X18188393Y-12372514D02*
X18302679Y-12372514D01*
X18231250Y-12272514D02*
X18231250Y-12529657D01*
X18245536Y-12558228D01*
X18274107Y-12572514D01*
X18302679Y-12572514D01*
X18516964Y-12558228D02*
X18488393Y-12572514D01*
X18431250Y-12572514D01*
X18402679Y-12558228D01*
X18388393Y-12529657D01*
X18388393Y-12415371D01*
X18402679Y-12386800D01*
X18431250Y-12372514D01*
X18488393Y-12372514D01*
X18516964Y-12386800D01*
X18531250Y-12415371D01*
X18531250Y-12443943D01*
X18388393Y-12472514D01*
X18788393Y-12572514D02*
X18788393Y-12272514D01*
X18788393Y-12558228D02*
X18759821Y-12572514D01*
X18702679Y-12572514D01*
X18674107Y-12558228D01*
X18659821Y-12543943D01*
X18645536Y-12515371D01*
X18645536Y-12429657D01*
X18659821Y-12401086D01*
X18674107Y-12386800D01*
X18702679Y-12372514D01*
X18759821Y-12372514D01*
X18788393Y-12386800D01*
X18902679Y-12686800D02*
X18916964Y-12672514D01*
X18945536Y-12629657D01*
X18959821Y-12601086D01*
X18974107Y-12558228D01*
X18988393Y-12486800D01*
X18988393Y-12429657D01*
X18974107Y-12358228D01*
X18959821Y-12315371D01*
X18945536Y-12286800D01*
X18916964Y-12243943D01*
X18902679Y-12229657D01*
M02*
