%FSLAX45Y45*%
G04 Gerber Fmt 4.5, Leading zero omitted, Abs format (unit mm)*
G04 Created by KiCad (PCBNEW (5.1.10)-1) date 2022-08-23 18:53:12*
%MOMM*%
%LPD*%
G01*
G04 APERTURE LIST*
%ADD10C,0.200000*%
%ADD11C,0.300000*%
G04 APERTURE END LIST*
D10*
X9304300Y-7367550D02*
X9339300Y-7402550D01*
X9339300Y-7367550D02*
X9304300Y-7402550D01*
X9348750Y-7088150D02*
X9383750Y-7123150D01*
X9383750Y-7088150D02*
X9348750Y-7123150D01*
X9386850Y-7837450D02*
X9421850Y-7872450D01*
X9421850Y-7837450D02*
X9386850Y-7872450D01*
X9469400Y-8628660D02*
X9504400Y-8663660D01*
X9504400Y-8628660D02*
X9469400Y-8663660D01*
X9526550Y-8675650D02*
X9561550Y-8710650D01*
X9561550Y-8675650D02*
X9526550Y-8710650D01*
X9551950Y-9075700D02*
X9586950Y-9110700D01*
X9586950Y-9075700D02*
X9551950Y-9110700D01*
X9583700Y-8720100D02*
X9618700Y-8755100D01*
X9618700Y-8720100D02*
X9583700Y-8755100D01*
X9615450Y-9145550D02*
X9650450Y-9180550D01*
X9650450Y-9145550D02*
X9615450Y-9180550D01*
X9653550Y-8377200D02*
X9688550Y-8412200D01*
X9688550Y-8377200D02*
X9653550Y-8412200D01*
X9666250Y-7304050D02*
X9701250Y-7339050D01*
X9701250Y-7304050D02*
X9666250Y-7339050D01*
X9678950Y-9101100D02*
X9713950Y-9136100D01*
X9713950Y-9101100D02*
X9678950Y-9136100D01*
X9691650Y-8104150D02*
X9726650Y-8139150D01*
X9726650Y-8104150D02*
X9691650Y-8139150D01*
X9767850Y-6948450D02*
X9802850Y-6983450D01*
X9802850Y-6948450D02*
X9767850Y-6983450D01*
X9767850Y-8656600D02*
X9802850Y-8691600D01*
X9802850Y-8656600D02*
X9767850Y-8691600D01*
X9820500Y-7619700D02*
X9855500Y-7654700D01*
X9855500Y-7619700D02*
X9820500Y-7654700D01*
X9840648Y-9453752D02*
X9875648Y-9488752D01*
X9875648Y-9453752D02*
X9840648Y-9488752D01*
X9843415Y-9288425D02*
X9878415Y-9323425D01*
X9878415Y-9288425D02*
X9843415Y-9323425D01*
X9844050Y-8796300D02*
X9879050Y-8831300D01*
X9879050Y-8796300D02*
X9844050Y-8831300D01*
X9885500Y-7878900D02*
X9920500Y-7913900D01*
X9920500Y-7878900D02*
X9885500Y-7913900D01*
X9888500Y-5799100D02*
X9923500Y-5834100D01*
X9923500Y-5799100D02*
X9888500Y-5834100D01*
X9888500Y-7323100D02*
X9923500Y-7358100D01*
X9923500Y-7323100D02*
X9888500Y-7358100D01*
X9926600Y-8796300D02*
X9961600Y-8831300D01*
X9961600Y-8796300D02*
X9926600Y-8831300D01*
X10000260Y-7549160D02*
X10035260Y-7584160D01*
X10035260Y-7549160D02*
X10000260Y-7584160D01*
X10009150Y-8866150D02*
X10044150Y-8901150D01*
X10044150Y-8866150D02*
X10009150Y-8901150D01*
X10015500Y-5792750D02*
X10050500Y-5827750D01*
X10050500Y-5792750D02*
X10015500Y-5827750D01*
X10040500Y-9374550D02*
X10075500Y-9409550D01*
X10075500Y-9374550D02*
X10040500Y-9409550D01*
X10066300Y-8809000D02*
X10101300Y-8844000D01*
X10101300Y-8809000D02*
X10066300Y-8844000D01*
X10080500Y-7373251D02*
X10115500Y-7408251D01*
X10115500Y-7373251D02*
X10080500Y-7408251D01*
X10098050Y-9431300D02*
X10133050Y-9466300D01*
X10133050Y-9431300D02*
X10098050Y-9466300D01*
X10104400Y-9297950D02*
X10139400Y-9332950D01*
X10139400Y-9297950D02*
X10104400Y-9332950D01*
X10129800Y-6980200D02*
X10164800Y-7015200D01*
X10164800Y-6980200D02*
X10129800Y-7015200D01*
X10129800Y-8751850D02*
X10164800Y-8786850D01*
X10164800Y-8751850D02*
X10129800Y-8786850D01*
X10142500Y-10491750D02*
X10177500Y-10526750D01*
X10177500Y-10491750D02*
X10142500Y-10526750D01*
X10145500Y-7428050D02*
X10180500Y-7463050D01*
X10180500Y-7428050D02*
X10145500Y-7463050D01*
X10155200Y-9488450D02*
X10190200Y-9523450D01*
X10190200Y-9488450D02*
X10155200Y-9523450D01*
X10167900Y-7551700D02*
X10202900Y-7586700D01*
X10202900Y-7551700D02*
X10167900Y-7586700D01*
X10186950Y-9266200D02*
X10221950Y-9301200D01*
X10221950Y-9266200D02*
X10186950Y-9301200D01*
X10199650Y-10434600D02*
X10234650Y-10469600D01*
X10234650Y-10434600D02*
X10199650Y-10469600D01*
X10244100Y-9323350D02*
X10279100Y-9358350D01*
X10279100Y-9323350D02*
X10244100Y-9358350D01*
X10249200Y-10962900D02*
X10284200Y-10997900D01*
X10284200Y-10962900D02*
X10249200Y-10997900D01*
X10256800Y-10377450D02*
X10291800Y-10412450D01*
X10291800Y-10377450D02*
X10256800Y-10412450D01*
X10301250Y-9380500D02*
X10336250Y-9415500D01*
X10336250Y-9380500D02*
X10301250Y-9415500D01*
X10307600Y-7158000D02*
X10342600Y-7193000D01*
X10342600Y-7158000D02*
X10307600Y-7193000D01*
X10313950Y-10320300D02*
X10348950Y-10355300D01*
X10348950Y-10320300D02*
X10313950Y-10355300D01*
X10358400Y-9437650D02*
X10393400Y-9472650D01*
X10393400Y-9437650D02*
X10358400Y-9472650D01*
X10390150Y-10263150D02*
X10425150Y-10298150D01*
X10425150Y-10263150D02*
X10390150Y-10298150D01*
X10390150Y-10618750D02*
X10425150Y-10653750D01*
X10425150Y-10618750D02*
X10390150Y-10653750D01*
X10415550Y-9494800D02*
X10450550Y-9529800D01*
X10450550Y-9494800D02*
X10415550Y-9529800D01*
X10434600Y-6853200D02*
X10469600Y-6888200D01*
X10469600Y-6853200D02*
X10434600Y-6888200D01*
X10472700Y-10148850D02*
X10507700Y-10183850D01*
X10507700Y-10148850D02*
X10472700Y-10183850D01*
X10485400Y-11082300D02*
X10520400Y-11117300D01*
X10520400Y-11082300D02*
X10485400Y-11117300D01*
X10491750Y-8320050D02*
X10526750Y-8355050D01*
X10526750Y-8320050D02*
X10491750Y-8355050D01*
X10529850Y-10206000D02*
X10564850Y-10241000D01*
X10564850Y-10206000D02*
X10529850Y-10241000D01*
X10707650Y-7767600D02*
X10742650Y-7802600D01*
X10742650Y-7767600D02*
X10707650Y-7802600D01*
X10720350Y-6523000D02*
X10755350Y-6558000D01*
X10755350Y-6523000D02*
X10720350Y-6558000D01*
X10796550Y-8866150D02*
X10831550Y-8901150D01*
X10831550Y-8866150D02*
X10796550Y-8901150D01*
X10809250Y-11056900D02*
X10844250Y-11091900D01*
X10844250Y-11056900D02*
X10809250Y-11091900D01*
X10885450Y-10491750D02*
X10920450Y-10526750D01*
X10920450Y-10491750D02*
X10885450Y-10526750D01*
X10901770Y-7373251D02*
X10936770Y-7408251D01*
X10936770Y-7373251D02*
X10901770Y-7408251D01*
X10942600Y-10434600D02*
X10977600Y-10469600D01*
X10977600Y-10434600D02*
X10942600Y-10469600D01*
X10948950Y-6465850D02*
X10983950Y-6500850D01*
X10983950Y-6465850D02*
X10948950Y-6500850D01*
X10948950Y-7907300D02*
X10983950Y-7942300D01*
X10983950Y-7907300D02*
X10948950Y-7942300D01*
X10974350Y-8897900D02*
X11009350Y-8932900D01*
X11009350Y-8897900D02*
X10974350Y-8932900D01*
X10983000Y-8768600D02*
X11018000Y-8803600D01*
X11018000Y-8768600D02*
X10983000Y-8803600D01*
X10999750Y-10377450D02*
X11034750Y-10412450D01*
X11034750Y-10377450D02*
X10999750Y-10412450D01*
X11012450Y-7551700D02*
X11047450Y-7586700D01*
X11047450Y-7551700D02*
X11012450Y-7586700D01*
X11044200Y-8389900D02*
X11079200Y-8424900D01*
X11079200Y-8389900D02*
X11044200Y-8424900D01*
X11056900Y-10320300D02*
X11091900Y-10355300D01*
X11091900Y-10320300D02*
X11056900Y-10355300D01*
X11086800Y-7619700D02*
X11121800Y-7654700D01*
X11121800Y-7619700D02*
X11086800Y-7654700D01*
X11096500Y-7373251D02*
X11131500Y-7408251D01*
X11131500Y-7373251D02*
X11096500Y-7408251D01*
X11114050Y-10263150D02*
X11149050Y-10298150D01*
X11149050Y-10263150D02*
X11114050Y-10298150D01*
X11161500Y-7618550D02*
X11196500Y-7653550D01*
X11196500Y-7618550D02*
X11161500Y-7653550D01*
X11171200Y-6408700D02*
X11206200Y-6443700D01*
X11206200Y-6408700D02*
X11171200Y-6443700D01*
X11171200Y-10206000D02*
X11206200Y-10241000D01*
X11206200Y-10206000D02*
X11171200Y-10241000D01*
X11222000Y-7488200D02*
X11257000Y-7523200D01*
X11257000Y-7488200D02*
X11222000Y-7523200D01*
X11228350Y-6935750D02*
X11263350Y-6970750D01*
X11263350Y-6935750D02*
X11228350Y-6970750D01*
X11286550Y-8486200D02*
X11321550Y-8521200D01*
X11321550Y-8486200D02*
X11286550Y-8521200D01*
X11310900Y-10104400D02*
X11345900Y-10139400D01*
X11345900Y-10104400D02*
X11310900Y-10139400D01*
X11342650Y-9431300D02*
X11377650Y-9466300D01*
X11377650Y-9431300D02*
X11342650Y-9466300D01*
X11368050Y-9717050D02*
X11403050Y-9752050D01*
X11403050Y-9717050D02*
X11368050Y-9752050D01*
X11387100Y-9659900D02*
X11422100Y-9694900D01*
X11422100Y-9659900D02*
X11387100Y-9694900D01*
X11399800Y-9374150D02*
X11434800Y-9409150D01*
X11434800Y-9374150D02*
X11399800Y-9409150D01*
X11418850Y-8428000D02*
X11453850Y-8463000D01*
X11453850Y-8428000D02*
X11418850Y-8463000D01*
X11422660Y-6408700D02*
X11457660Y-6443700D01*
X11457660Y-6408700D02*
X11422660Y-6443700D01*
X11425200Y-9602750D02*
X11460200Y-9637750D01*
X11460200Y-9602750D02*
X11425200Y-9637750D01*
X11431550Y-8110500D02*
X11466550Y-8145500D01*
X11466550Y-8110500D02*
X11431550Y-8145500D01*
X11450600Y-8364500D02*
X11485600Y-8399500D01*
X11485600Y-8364500D02*
X11450600Y-8399500D01*
X11456950Y-9317000D02*
X11491950Y-9352000D01*
X11491950Y-9317000D02*
X11456950Y-9352000D01*
X11476000Y-9545600D02*
X11511000Y-9580600D01*
X11511000Y-9545600D02*
X11476000Y-9580600D01*
X11514100Y-9259850D02*
X11549100Y-9294850D01*
X11549100Y-9259850D02*
X11514100Y-9294850D01*
X11526800Y-9488450D02*
X11561800Y-9523450D01*
X11561800Y-9488450D02*
X11526800Y-9523450D01*
X11539500Y-6547500D02*
X11574500Y-6582500D01*
X11574500Y-6547500D02*
X11539500Y-6582500D01*
X11571250Y-9202700D02*
X11606250Y-9237700D01*
X11606250Y-9202700D02*
X11571250Y-9237700D01*
X11628400Y-9145550D02*
X11663400Y-9180550D01*
X11663400Y-9145550D02*
X11628400Y-9180550D01*
X11634750Y-8358150D02*
X11669750Y-8393150D01*
X11669750Y-8358150D02*
X11634750Y-8393150D01*
X11685550Y-9088400D02*
X11720550Y-9123400D01*
X11720550Y-9088400D02*
X11685550Y-9123400D01*
X11710950Y-6465850D02*
X11745950Y-6500850D01*
X11745950Y-6465850D02*
X11710950Y-6500850D01*
X11749050Y-9031250D02*
X11784050Y-9066250D01*
X11784050Y-9031250D02*
X11749050Y-9066250D01*
X11755400Y-11272800D02*
X11790400Y-11307800D01*
X11790400Y-11272800D02*
X11755400Y-11307800D01*
X11799850Y-7742200D02*
X11834850Y-7777200D01*
X11834850Y-7742200D02*
X11799850Y-7777200D01*
X11806200Y-8974100D02*
X11841200Y-9009100D01*
X11841200Y-8974100D02*
X11806200Y-9009100D01*
X11837950Y-7056400D02*
X11872950Y-7091400D01*
X11872950Y-7056400D02*
X11837950Y-7091400D01*
X11895100Y-7488200D02*
X11930100Y-7523200D01*
X11930100Y-7488200D02*
X11895100Y-7523200D01*
X11914150Y-7297051D02*
X11949150Y-7332051D01*
X11949150Y-7297051D02*
X11914150Y-7332051D01*
X11926850Y-6650000D02*
X11961850Y-6685000D01*
X11961850Y-6650000D02*
X11926850Y-6685000D01*
X11926850Y-6942100D02*
X11961850Y-6977100D01*
X11961850Y-6942100D02*
X11926850Y-6977100D01*
X11931000Y-6408360D02*
X11966000Y-6443360D01*
X11966000Y-6408360D02*
X11931000Y-6443360D01*
X11982500Y-7296200D02*
X12017500Y-7331200D01*
X12017500Y-7296200D02*
X11982500Y-7331200D01*
X11982500Y-7867700D02*
X12017500Y-7902700D01*
X12017500Y-7867700D02*
X11982500Y-7902700D01*
X12034800Y-6961150D02*
X12069800Y-6996150D01*
X12069800Y-6961150D02*
X12034800Y-6996150D01*
X12044500Y-7428050D02*
X12079500Y-7463050D01*
X12079500Y-7428050D02*
X12044500Y-7463050D01*
X12109148Y-7871052D02*
X12144148Y-7906052D01*
X12144148Y-7871052D02*
X12109148Y-7906052D01*
X12120350Y-10634800D02*
X12155350Y-10669800D01*
X12155350Y-10634800D02*
X12120350Y-10669800D01*
X12136400Y-11095000D02*
X12171400Y-11130000D01*
X12171400Y-11095000D02*
X12136400Y-11130000D01*
X12168150Y-10040900D02*
X12203150Y-10075900D01*
X12203150Y-10040900D02*
X12168150Y-10075900D01*
X12177500Y-7087501D02*
X12212500Y-7122501D01*
X12212500Y-7087501D02*
X12177500Y-7122501D01*
X12187200Y-7551700D02*
X12222200Y-7586700D01*
X12222200Y-7551700D02*
X12187200Y-7586700D01*
X12187200Y-8916950D02*
X12222200Y-8951950D01*
X12222200Y-8916950D02*
X12187200Y-8951950D01*
X12193550Y-6427750D02*
X12228550Y-6462750D01*
X12228550Y-6427750D02*
X12193550Y-6462750D01*
X12199900Y-10587000D02*
X12234900Y-10622000D01*
X12234900Y-10587000D02*
X12199900Y-10622000D01*
X12248400Y-8768600D02*
X12283400Y-8803600D01*
X12283400Y-8768600D02*
X12248400Y-8803600D01*
X12269750Y-7589800D02*
X12304750Y-7624800D01*
X12304750Y-7589800D02*
X12269750Y-7624800D01*
X12269750Y-8307350D02*
X12304750Y-8342350D01*
X12304750Y-8307350D02*
X12269750Y-8342350D01*
X12307850Y-8370850D02*
X12342850Y-8405850D01*
X12342850Y-8370850D02*
X12307850Y-8405850D01*
X12307850Y-10529850D02*
X12342850Y-10564850D01*
X12342850Y-10529850D02*
X12307850Y-10564850D01*
X12314200Y-6478550D02*
X12349200Y-6513550D01*
X12349200Y-6478550D02*
X12314200Y-6513550D01*
X12339600Y-7621550D02*
X12374600Y-7656550D01*
X12374600Y-7621550D02*
X12339600Y-7656550D01*
X12339600Y-8097800D02*
X12374600Y-8132800D01*
X12374600Y-8097800D02*
X12339600Y-8132800D01*
X12358650Y-6859550D02*
X12393650Y-6894550D01*
X12393650Y-6859550D02*
X12358650Y-6894550D01*
X12395700Y-8486200D02*
X12430700Y-8521200D01*
X12430700Y-8486200D02*
X12395700Y-8521200D01*
X12415800Y-6656350D02*
X12450800Y-6691350D01*
X12450800Y-6656350D02*
X12415800Y-6691350D01*
X12453900Y-10472700D02*
X12488900Y-10507700D01*
X12488900Y-10472700D02*
X12453900Y-10507700D01*
X12453900Y-10968000D02*
X12488900Y-11003000D01*
X12488900Y-10968000D02*
X12453900Y-11003000D01*
X12460250Y-8307350D02*
X12495250Y-8342350D01*
X12495250Y-8307350D02*
X12460250Y-8342350D01*
X12485650Y-7850150D02*
X12520650Y-7885150D01*
X12520650Y-7850150D02*
X12485650Y-7885150D01*
X12504700Y-6637300D02*
X12539700Y-6672300D01*
X12539700Y-6637300D02*
X12504700Y-6672300D01*
X12511050Y-6935750D02*
X12546050Y-6970750D01*
X12546050Y-6935750D02*
X12511050Y-6970750D01*
X12511050Y-7335800D02*
X12546050Y-7370800D01*
X12546050Y-7335800D02*
X12511050Y-7370800D01*
X12511050Y-7564400D02*
X12546050Y-7599400D01*
X12546050Y-7564400D02*
X12511050Y-7599400D01*
X12529050Y-8486200D02*
X12564050Y-8521200D01*
X12564050Y-8486200D02*
X12529050Y-8521200D01*
X12530100Y-10415550D02*
X12565100Y-10450550D01*
X12565100Y-10415550D02*
X12530100Y-10450550D01*
X12536450Y-11266450D02*
X12571450Y-11301450D01*
X12571450Y-11266450D02*
X12536450Y-11301450D01*
X12568200Y-6891300D02*
X12603200Y-6926300D01*
X12603200Y-6891300D02*
X12568200Y-6926300D01*
X12568200Y-7392950D02*
X12603200Y-7427950D01*
X12603200Y-7392950D02*
X12568200Y-7427950D01*
X12568200Y-7735850D02*
X12603200Y-7770850D01*
X12603200Y-7735850D02*
X12568200Y-7770850D01*
X12568200Y-10358400D02*
X12603200Y-10393400D01*
X12603200Y-10358400D02*
X12568200Y-10393400D01*
X12599950Y-6986550D02*
X12634950Y-7021550D01*
X12634950Y-6986550D02*
X12599950Y-7021550D01*
X12606300Y-10301250D02*
X12641300Y-10336250D01*
X12641300Y-10301250D02*
X12606300Y-10336250D01*
X12625350Y-7678700D02*
X12660350Y-7713700D01*
X12660350Y-7678700D02*
X12625350Y-7713700D01*
X12644400Y-10244100D02*
X12679400Y-10279100D01*
X12679400Y-10244100D02*
X12644400Y-10279100D01*
X12746000Y-6205500D02*
X12781000Y-6240500D01*
X12781000Y-6205500D02*
X12746000Y-6240500D01*
X12841250Y-7450100D02*
X12876250Y-7485100D01*
X12876250Y-7450100D02*
X12841250Y-7485100D01*
X12853950Y-11139450D02*
X12888950Y-11174450D01*
X12888950Y-11139450D02*
X12853950Y-11174450D01*
X12892050Y-7564400D02*
X12927050Y-7599400D01*
X12927050Y-7564400D02*
X12892050Y-7599400D01*
X12930150Y-11266450D02*
X12965150Y-11301450D01*
X12965150Y-11266450D02*
X12930150Y-11301450D01*
X12936500Y-6472200D02*
X12971500Y-6507200D01*
X12971500Y-6472200D02*
X12936500Y-6507200D01*
X13000000Y-6891300D02*
X13035000Y-6926300D01*
X13035000Y-6891300D02*
X13000000Y-6926300D01*
X13031750Y-8097800D02*
X13066750Y-8132800D01*
X13066750Y-8097800D02*
X13031750Y-8132800D01*
X13031750Y-8555000D02*
X13066750Y-8590000D01*
X13066750Y-8555000D02*
X13031750Y-8590000D01*
X13050800Y-7280202D02*
X13085800Y-7315202D01*
X13085800Y-7280202D02*
X13050800Y-7315202D01*
X13050800Y-7507250D02*
X13085800Y-7542250D01*
X13085800Y-7507250D02*
X13050800Y-7542250D01*
X13156850Y-8823600D02*
X13191850Y-8858600D01*
X13191850Y-8823600D02*
X13156850Y-8858600D01*
X13177800Y-6891300D02*
X13212800Y-6926300D01*
X13212800Y-6891300D02*
X13177800Y-6926300D01*
X13177800Y-7280202D02*
X13212800Y-7315202D01*
X13212800Y-7280202D02*
X13177800Y-7315202D01*
X13190500Y-6472200D02*
X13225500Y-6507200D01*
X13225500Y-6472200D02*
X13190500Y-6507200D01*
X13196850Y-10847350D02*
X13231850Y-10882350D01*
X13231850Y-10847350D02*
X13196850Y-10882350D01*
X13260350Y-8910600D02*
X13295350Y-8945600D01*
X13295350Y-8910600D02*
X13260350Y-8945600D01*
X13279400Y-9012200D02*
X13314400Y-9047200D01*
X13314400Y-9012200D02*
X13279400Y-9047200D01*
X13279400Y-9075700D02*
X13314400Y-9110700D01*
X13314400Y-9075700D02*
X13279400Y-9110700D01*
X13279400Y-9139200D02*
X13314400Y-9174200D01*
X13314400Y-9139200D02*
X13279400Y-9174200D01*
X13279400Y-9202700D02*
X13314400Y-9237700D01*
X13314400Y-9202700D02*
X13279400Y-9237700D01*
X13279400Y-9266200D02*
X13314400Y-9301200D01*
X13314400Y-9266200D02*
X13279400Y-9301200D01*
X13279400Y-9329700D02*
X13314400Y-9364700D01*
X13314400Y-9329700D02*
X13279400Y-9364700D01*
X13279400Y-9393200D02*
X13314400Y-9428200D01*
X13314400Y-9393200D02*
X13279400Y-9428200D01*
X13279400Y-9456700D02*
X13314400Y-9491700D01*
X13314400Y-9456700D02*
X13279400Y-9491700D01*
X13279400Y-9520200D02*
X13314400Y-9555200D01*
X13314400Y-9520200D02*
X13279400Y-9555200D01*
X13279400Y-9717050D02*
X13314400Y-9752050D01*
X13314400Y-9717050D02*
X13279400Y-9752050D01*
X13279400Y-9780550D02*
X13314400Y-9815550D01*
X13314400Y-9780550D02*
X13279400Y-9815550D01*
X13279400Y-9844050D02*
X13314400Y-9879050D01*
X13314400Y-9844050D02*
X13279400Y-9879050D01*
X13282144Y-9650806D02*
X13317144Y-9685806D01*
X13317144Y-9650806D02*
X13282144Y-9685806D01*
X13282775Y-9586675D02*
X13317775Y-9621675D01*
X13317775Y-9586675D02*
X13282775Y-9621675D01*
X13292100Y-8428000D02*
X13327100Y-8463000D01*
X13327100Y-8428000D02*
X13292100Y-8463000D01*
X13298450Y-7793000D02*
X13333450Y-7828000D01*
X13333450Y-7793000D02*
X13298450Y-7828000D01*
X13316598Y-7336702D02*
X13351598Y-7371702D01*
X13351598Y-7336702D02*
X13316598Y-7371702D01*
X13366748Y-7280202D02*
X13401748Y-7315202D01*
X13401748Y-7280202D02*
X13366748Y-7315202D01*
X13431800Y-6891300D02*
X13466800Y-6926300D01*
X13466800Y-6891300D02*
X13431800Y-6926300D01*
X13431800Y-7850150D02*
X13466800Y-7885150D01*
X13466800Y-7850150D02*
X13431800Y-7885150D01*
X13444500Y-6472200D02*
X13479500Y-6507200D01*
X13479500Y-6472200D02*
X13444500Y-6507200D01*
X13558800Y-6891300D02*
X13593800Y-6926300D01*
X13593800Y-6891300D02*
X13558800Y-6926300D01*
X13565150Y-10015500D02*
X13600150Y-10050500D01*
X13600150Y-10015500D02*
X13565150Y-10050500D01*
X13565150Y-10129800D02*
X13600150Y-10164800D01*
X13600150Y-10129800D02*
X13565150Y-10164800D01*
X13571500Y-9901200D02*
X13606500Y-9936200D01*
X13606500Y-9901200D02*
X13571500Y-9936200D01*
X13590550Y-10186950D02*
X13625550Y-10221950D01*
X13625550Y-10186950D02*
X13590550Y-10221950D01*
X13609600Y-9958350D02*
X13644600Y-9993350D01*
X13644600Y-9958350D02*
X13609600Y-9993350D01*
X13609600Y-10072650D02*
X13644600Y-10107650D01*
X13644600Y-10072650D02*
X13609600Y-10107650D01*
X13698500Y-5570500D02*
X13733500Y-5605500D01*
X13733500Y-5570500D02*
X13698500Y-5605500D01*
X13698500Y-6472200D02*
X13733500Y-6507200D01*
X13733500Y-6472200D02*
X13698500Y-6507200D01*
X13736600Y-11285500D02*
X13771600Y-11320500D01*
X13771600Y-11285500D02*
X13736600Y-11320500D01*
X13762000Y-8936000D02*
X13797000Y-8971000D01*
X13797000Y-8936000D02*
X13762000Y-8971000D01*
X13781050Y-7450100D02*
X13816050Y-7485100D01*
X13816050Y-7450100D02*
X13781050Y-7485100D01*
X13825500Y-6218200D02*
X13860500Y-6253200D01*
X13860500Y-6218200D02*
X13825500Y-6253200D01*
X13831850Y-5507000D02*
X13866850Y-5542000D01*
X13866850Y-5507000D02*
X13831850Y-5542000D01*
X13838200Y-7513600D02*
X13873200Y-7548600D01*
X13873200Y-7513600D02*
X13838200Y-7548600D01*
X13933450Y-7323100D02*
X13968450Y-7358100D01*
X13968450Y-7323100D02*
X13933450Y-7358100D01*
X13952500Y-5634000D02*
X13987500Y-5669000D01*
X13987500Y-5634000D02*
X13952500Y-5669000D01*
X13952500Y-6472200D02*
X13987500Y-6507200D01*
X13987500Y-6472200D02*
X13952500Y-6507200D01*
X13952500Y-6942100D02*
X13987500Y-6977100D01*
X13987500Y-6942100D02*
X13952500Y-6977100D01*
X13958850Y-10885450D02*
X13993850Y-10920450D01*
X13993850Y-10885450D02*
X13958850Y-10920450D01*
X14079500Y-7386600D02*
X14114500Y-7421600D01*
X14114500Y-7386600D02*
X14079500Y-7421600D01*
X14085850Y-6650000D02*
X14120850Y-6685000D01*
X14120850Y-6650000D02*
X14085850Y-6685000D01*
X14085850Y-6872250D02*
X14120850Y-6907250D01*
X14120850Y-6872250D02*
X14085850Y-6907250D01*
X14130300Y-11329950D02*
X14165300Y-11364950D01*
X14165300Y-11329950D02*
X14130300Y-11364950D01*
X14149350Y-6224550D02*
X14184350Y-6259550D01*
X14184350Y-6224550D02*
X14149350Y-6259550D01*
X14206500Y-6472200D02*
X14241500Y-6507200D01*
X14241500Y-6472200D02*
X14206500Y-6507200D01*
X14219200Y-5316500D02*
X14254200Y-5351500D01*
X14254200Y-5316500D02*
X14219200Y-5351500D01*
X14219200Y-7450100D02*
X14254200Y-7485100D01*
X14254200Y-7450100D02*
X14219200Y-7485100D01*
X14263650Y-6186450D02*
X14298650Y-6221450D01*
X14298650Y-6186450D02*
X14263650Y-6221450D01*
X14352550Y-10282200D02*
X14387550Y-10317200D01*
X14387550Y-10282200D02*
X14352550Y-10317200D01*
X14397000Y-6091200D02*
X14432000Y-6126200D01*
X14432000Y-6091200D02*
X14397000Y-6126200D01*
X14409700Y-5507000D02*
X14444700Y-5542000D01*
X14444700Y-5507000D02*
X14409700Y-5542000D01*
X14416050Y-10891800D02*
X14451050Y-10926800D01*
X14451050Y-10891800D02*
X14416050Y-10926800D01*
X14460500Y-6472200D02*
X14495500Y-6507200D01*
X14495500Y-6472200D02*
X14460500Y-6507200D01*
X14524000Y-6078500D02*
X14559000Y-6113500D01*
X14559000Y-6078500D02*
X14524000Y-6113500D01*
X14536700Y-10333000D02*
X14571700Y-10368000D01*
X14571700Y-10333000D02*
X14536700Y-10368000D01*
X14606550Y-10333000D02*
X14641550Y-10368000D01*
X14641550Y-10333000D02*
X14606550Y-10368000D01*
X14651000Y-5507000D02*
X14686000Y-5542000D01*
X14686000Y-5507000D02*
X14651000Y-5542000D01*
X14651000Y-6084850D02*
X14686000Y-6119850D01*
X14686000Y-6084850D02*
X14651000Y-6119850D01*
X14676400Y-10333000D02*
X14711400Y-10368000D01*
X14711400Y-10333000D02*
X14676400Y-10368000D01*
X14682750Y-7761250D02*
X14717750Y-7796250D01*
X14717750Y-7761250D02*
X14682750Y-7796250D01*
X14714500Y-6472200D02*
X14749500Y-6507200D01*
X14749500Y-6472200D02*
X14714500Y-6507200D01*
X14727200Y-11114050D02*
X14762200Y-11149050D01*
X14762200Y-11114050D02*
X14727200Y-11149050D01*
X14746250Y-10333000D02*
X14781250Y-10368000D01*
X14781250Y-10333000D02*
X14746250Y-10368000D01*
X14758950Y-5507000D02*
X14793950Y-5542000D01*
X14793950Y-5507000D02*
X14758950Y-5542000D01*
X14799501Y-7700201D02*
X14834501Y-7735201D01*
X14834501Y-7700201D02*
X14799501Y-7735201D01*
X14828800Y-7177050D02*
X14863800Y-7212050D01*
X14863800Y-7177050D02*
X14828800Y-7212050D01*
X14835150Y-6878600D02*
X14870150Y-6913600D01*
X14870150Y-6878600D02*
X14835150Y-6913600D01*
X14860550Y-5507000D02*
X14895550Y-5542000D01*
X14895550Y-5507000D02*
X14860550Y-5542000D01*
X14866900Y-10275850D02*
X14901900Y-10310850D01*
X14901900Y-10275850D02*
X14866900Y-10310850D01*
X15025650Y-6199150D02*
X15060650Y-6234150D01*
X15060650Y-6199150D02*
X15025650Y-6234150D01*
X15070100Y-10828300D02*
X15105100Y-10863300D01*
X15105100Y-10828300D02*
X15070100Y-10863300D01*
X15089150Y-6396000D02*
X15124150Y-6431000D01*
X15124150Y-6396000D02*
X15089150Y-6431000D01*
X15120900Y-5081550D02*
X15155900Y-5116550D01*
X15155900Y-5081550D02*
X15120900Y-5116550D01*
X15146300Y-10523500D02*
X15181300Y-10558500D01*
X15181300Y-10523500D02*
X15146300Y-10558500D01*
X15146300Y-10612400D02*
X15181300Y-10647400D01*
X15181300Y-10612400D02*
X15146300Y-10647400D01*
X15146300Y-10701300D02*
X15181300Y-10736300D01*
X15181300Y-10701300D02*
X15146300Y-10736300D01*
X15159000Y-5849900D02*
X15194000Y-5884900D01*
X15194000Y-5849900D02*
X15159000Y-5884900D01*
X15197100Y-6192800D02*
X15232100Y-6227800D01*
X15232100Y-6192800D02*
X15197100Y-6227800D01*
X15197100Y-11037850D02*
X15232100Y-11072850D01*
X15232100Y-11037850D02*
X15197100Y-11072850D01*
X15292350Y-7589800D02*
X15327350Y-7624800D01*
X15327350Y-7589800D02*
X15292350Y-7624800D01*
X15324100Y-11285500D02*
X15359100Y-11320500D01*
X15359100Y-11285500D02*
X15324100Y-11320500D01*
X15336800Y-8910600D02*
X15371800Y-8945600D01*
X15371800Y-8910600D02*
X15336800Y-8945600D01*
X15406650Y-10434600D02*
X15441650Y-10469600D01*
X15441650Y-10434600D02*
X15406650Y-10469600D01*
X15419350Y-7627900D02*
X15454350Y-7662900D01*
X15454350Y-7627900D02*
X15419350Y-7662900D01*
X15444750Y-6091200D02*
X15479750Y-6126200D01*
X15479750Y-6091200D02*
X15444750Y-6126200D01*
X15489200Y-11031500D02*
X15524200Y-11066500D01*
X15524200Y-11031500D02*
X15489200Y-11066500D01*
X15498275Y-6208225D02*
X15533275Y-6243225D01*
X15533275Y-6208225D02*
X15498275Y-6243225D01*
X15584450Y-8910600D02*
X15619450Y-8945600D01*
X15619450Y-8910600D02*
X15584450Y-8945600D01*
X15590800Y-5532400D02*
X15625800Y-5567400D01*
X15625800Y-5532400D02*
X15590800Y-5567400D01*
X15603500Y-5443500D02*
X15638500Y-5478500D01*
X15638500Y-5443500D02*
X15603500Y-5478500D01*
X15628900Y-7697750D02*
X15663900Y-7732750D01*
X15663900Y-7697750D02*
X15628900Y-7732750D01*
X15667000Y-10460000D02*
X15702000Y-10495000D01*
X15702000Y-10460000D02*
X15667000Y-10495000D01*
X15730500Y-10790200D02*
X15765500Y-10825200D01*
X15765500Y-10790200D02*
X15730500Y-10825200D01*
X15787650Y-8916950D02*
X15822650Y-8951950D01*
X15822650Y-8916950D02*
X15787650Y-8951950D01*
X15838450Y-11164850D02*
X15873450Y-11199850D01*
X15873450Y-11164850D02*
X15838450Y-11199850D01*
X15857500Y-9520200D02*
X15892500Y-9555200D01*
X15892500Y-9520200D02*
X15857500Y-9555200D01*
X15876550Y-7666000D02*
X15911550Y-7701000D01*
X15911550Y-7666000D02*
X15876550Y-7701000D01*
X15914650Y-8916950D02*
X15949650Y-8951950D01*
X15949650Y-8916950D02*
X15914650Y-8951950D01*
X15921000Y-10434600D02*
X15956000Y-10469600D01*
X15956000Y-10434600D02*
X15921000Y-10469600D01*
X15984500Y-10701300D02*
X16019500Y-10736300D01*
X16019500Y-10701300D02*
X15984500Y-10736300D01*
X16041650Y-8910600D02*
X16076650Y-8945600D01*
X16076650Y-8910600D02*
X16041650Y-8945600D01*
X16041650Y-10066300D02*
X16076650Y-10101300D01*
X16076650Y-10066300D02*
X16041650Y-10101300D01*
X16048000Y-10434600D02*
X16083000Y-10469600D01*
X16083000Y-10434600D02*
X16048000Y-10469600D01*
X16111500Y-9456700D02*
X16146500Y-9491700D01*
X16146500Y-9456700D02*
X16111500Y-9491700D01*
X16162300Y-7659650D02*
X16197300Y-7694650D01*
X16197300Y-7659650D02*
X16162300Y-7694650D01*
X16168650Y-8910600D02*
X16203650Y-8945600D01*
X16203650Y-8910600D02*
X16168650Y-8945600D01*
X16200400Y-11196600D02*
X16235400Y-11231600D01*
X16235400Y-11196600D02*
X16200400Y-11231600D01*
X16238500Y-5316500D02*
X16273500Y-5351500D01*
X16273500Y-5316500D02*
X16238500Y-5351500D01*
X16238500Y-10523500D02*
X16273500Y-10558500D01*
X16273500Y-10523500D02*
X16238500Y-10558500D01*
X16238500Y-10752100D02*
X16273500Y-10787100D01*
X16273500Y-10752100D02*
X16238500Y-10787100D01*
X16289300Y-8897900D02*
X16324300Y-8932900D01*
X16324300Y-8897900D02*
X16289300Y-8932900D01*
X16295650Y-10040900D02*
X16330650Y-10075900D01*
X16330650Y-10040900D02*
X16295650Y-10075900D01*
X16346450Y-7653300D02*
X16381450Y-7688300D01*
X16381450Y-7653300D02*
X16346450Y-7688300D01*
X16365500Y-9393200D02*
X16400500Y-9428200D01*
X16400500Y-9393200D02*
X16365500Y-9428200D01*
X16429000Y-8897900D02*
X16464000Y-8932900D01*
X16464000Y-8897900D02*
X16429000Y-8932900D01*
X16492500Y-7145300D02*
X16527500Y-7180300D01*
X16527500Y-7145300D02*
X16492500Y-7180300D01*
X16556000Y-11247400D02*
X16591000Y-11282400D01*
X16591000Y-11247400D02*
X16556000Y-11282400D01*
X16587750Y-10085350D02*
X16622750Y-10120350D01*
X16622750Y-10085350D02*
X16587750Y-10120350D01*
X16613150Y-7640600D02*
X16648150Y-7675600D01*
X16648150Y-7640600D02*
X16613150Y-7675600D01*
X16625850Y-8904250D02*
X16660850Y-8939250D01*
X16660850Y-8904250D02*
X16625850Y-8939250D01*
X16651250Y-9926600D02*
X16686250Y-9961600D01*
X16686250Y-9926600D02*
X16651250Y-9961600D01*
X16746500Y-10612400D02*
X16781500Y-10647400D01*
X16781500Y-10612400D02*
X16746500Y-10647400D01*
X16746500Y-10745750D02*
X16781500Y-10780750D01*
X16781500Y-10745750D02*
X16746500Y-10780750D01*
X16803650Y-8916950D02*
X16838650Y-8951950D01*
X16838650Y-8916950D02*
X16803650Y-8951950D01*
X16860800Y-7640600D02*
X16895800Y-7675600D01*
X16895800Y-7640600D02*
X16860800Y-7675600D01*
X16873500Y-9329700D02*
X16908500Y-9364700D01*
X16908500Y-9329700D02*
X16873500Y-9364700D01*
X16905250Y-11279150D02*
X16940250Y-11314150D01*
X16940250Y-11279150D02*
X16905250Y-11314150D01*
X16930650Y-8897900D02*
X16965650Y-8932900D01*
X16965650Y-8897900D02*
X16930650Y-8932900D01*
X17000500Y-6815100D02*
X17035500Y-6850100D01*
X17035500Y-6815100D02*
X17000500Y-6850100D01*
X17070350Y-10079000D02*
X17105350Y-10114000D01*
X17105350Y-10079000D02*
X17070350Y-10114000D01*
X17114800Y-9875800D02*
X17149800Y-9910800D01*
X17149800Y-9875800D02*
X17114800Y-9910800D01*
X17121150Y-7653300D02*
X17156150Y-7688300D01*
X17156150Y-7653300D02*
X17121150Y-7688300D01*
X17121150Y-8923300D02*
X17156150Y-8958300D01*
X17156150Y-8923300D02*
X17121150Y-8958300D01*
X17171950Y-9710700D02*
X17206950Y-9745700D01*
X17206950Y-9710700D02*
X17171950Y-9745700D01*
X17191000Y-10745750D02*
X17226000Y-10780750D01*
X17226000Y-10745750D02*
X17191000Y-10780750D01*
X17254500Y-10841000D02*
X17289500Y-10876000D01*
X17289500Y-10841000D02*
X17254500Y-10876000D01*
X17311650Y-8916950D02*
X17346650Y-8951950D01*
X17346650Y-8916950D02*
X17311650Y-8951950D01*
X17318000Y-10745750D02*
X17353000Y-10780750D01*
X17353000Y-10745750D02*
X17318000Y-10780750D01*
X17381500Y-9266200D02*
X17416500Y-9301200D01*
X17416500Y-9266200D02*
X17381500Y-9301200D01*
X17438650Y-8916950D02*
X17473650Y-8951950D01*
X17473650Y-8916950D02*
X17438650Y-8951950D01*
X17508500Y-10688600D02*
X17543500Y-10723600D01*
X17543500Y-10688600D02*
X17508500Y-10723600D01*
X17565650Y-8916950D02*
X17600650Y-8951950D01*
X17600650Y-8916950D02*
X17565650Y-8951950D01*
X17635500Y-9202700D02*
X17670500Y-9237700D01*
X17670500Y-9202700D02*
X17635500Y-9237700D01*
X17637352Y-11134952D02*
X17672352Y-11169952D01*
X17672352Y-11134952D02*
X17637352Y-11169952D01*
X17673600Y-11253750D02*
X17708600Y-11288750D01*
X17708600Y-11253750D02*
X17673600Y-11288750D01*
X17692650Y-8916950D02*
X17727650Y-8951950D01*
X17727650Y-8916950D02*
X17692650Y-8951950D01*
X17724400Y-10599700D02*
X17759400Y-10634700D01*
X17759400Y-10599700D02*
X17724400Y-10634700D01*
X17724400Y-10726700D02*
X17759400Y-10761700D01*
X17759400Y-10726700D02*
X17724400Y-10761700D01*
X17724400Y-10866400D02*
X17759400Y-10901400D01*
X17759400Y-10866400D02*
X17724400Y-10901400D01*
X17800600Y-10752100D02*
X17835600Y-10787100D01*
X17835600Y-10752100D02*
X17800600Y-10787100D01*
X17819650Y-8916950D02*
X17854650Y-8951950D01*
X17854650Y-8916950D02*
X17819650Y-8951950D01*
X17889500Y-9139200D02*
X17924500Y-9174200D01*
X17924500Y-9139200D02*
X17889500Y-9174200D01*
X17895850Y-11209300D02*
X17930850Y-11244300D01*
X17930850Y-11209300D02*
X17895850Y-11244300D01*
X17946650Y-8916950D02*
X17981650Y-8951950D01*
X17981650Y-8916950D02*
X17946650Y-8951950D01*
X18067300Y-8904250D02*
X18102300Y-8939250D01*
X18102300Y-8904250D02*
X18067300Y-8939250D01*
X18143500Y-9075700D02*
X18178500Y-9110700D01*
X18178500Y-9075700D02*
X18143500Y-9110700D01*
X18200650Y-9190000D02*
X18235650Y-9225000D01*
X18235650Y-9190000D02*
X18200650Y-9225000D01*
X18321300Y-9139200D02*
X18356300Y-9174200D01*
X18356300Y-9139200D02*
X18321300Y-9174200D01*
X9020620Y-7199500D02*
G75*
G03*
X9020620Y-7199500I-20000J0D01*
G01*
X9021760Y-7569200D02*
G75*
G03*
X9021760Y-7569200I-20000J0D01*
G01*
X9291000Y-10668000D02*
G75*
G03*
X9291000Y-10668000I-20000J0D01*
G01*
X10135550Y-8108950D02*
G75*
G03*
X10135550Y-8108950I-20000J0D01*
G01*
X10281600Y-7931150D02*
G75*
G03*
X10281600Y-7931150I-20000J0D01*
G01*
X10567350Y-6045200D02*
G75*
G03*
X10567350Y-6045200I-20000J0D01*
G01*
X10691940Y-7127110D02*
G75*
G03*
X10691940Y-7127110I-20000J0D01*
G01*
X10771820Y-6804660D02*
G75*
G03*
X10771820Y-6804660I-20000J0D01*
G01*
X10802300Y-8420100D02*
G75*
G03*
X10802300Y-8420100I-20000J0D01*
G01*
X11037250Y-8255000D02*
G75*
G03*
X11037250Y-8255000I-20000J0D01*
G01*
X11450000Y-7988300D02*
G75*
G03*
X11450000Y-7988300I-20000J0D01*
G01*
X11577000Y-10515600D02*
G75*
G03*
X11577000Y-10515600I-20000J0D01*
G01*
X11723750Y-10838750D02*
G75*
G03*
X11723750Y-10838750I-20000J0D01*
G01*
X11856400Y-8255000D02*
G75*
G03*
X11856400Y-8255000I-20000J0D01*
G01*
X11856400Y-10439400D02*
G75*
G03*
X11856400Y-10439400I-20000J0D01*
G01*
X12097700Y-8210550D02*
G75*
G03*
X12097700Y-8210550I-20000J0D01*
G01*
X12770800Y-6858000D02*
G75*
G03*
X12770800Y-6858000I-20000J0D01*
G01*
X12796200Y-8210550D02*
G75*
G03*
X12796200Y-8210550I-20000J0D01*
G01*
X13228000Y-8210550D02*
G75*
G03*
X13228000Y-8210550I-20000J0D01*
G01*
X14753400Y-8914000D02*
G75*
G03*
X14753400Y-8914000I-20000J0D01*
G01*
X18308000Y-10668000D02*
G75*
G03*
X18308000Y-10668000I-20000J0D01*
G01*
X12573000Y-5047500D02*
X12573000Y-5112500D01*
X12540500Y-5080000D02*
X12605500Y-5080000D01*
X9775535Y-10473285D02*
X9775535Y-10416716D01*
X9718966Y-10416716D01*
X9718966Y-10473285D01*
X9775535Y-10473285D01*
X9775535Y-10823285D02*
X9775535Y-10766716D01*
X9718966Y-10766716D01*
X9718966Y-10823285D01*
X9775535Y-10823285D01*
X10823285Y-5108285D02*
X10823285Y-5051716D01*
X10766716Y-5051716D01*
X10766716Y-5108285D01*
X10823285Y-5108285D01*
X10823285Y-5870284D02*
X10823285Y-5813715D01*
X10766716Y-5813715D01*
X10766716Y-5870284D01*
X10823285Y-5870284D01*
X11077285Y-5108285D02*
X11077285Y-5051716D01*
X11020716Y-5051716D01*
X11020716Y-5108285D01*
X11077285Y-5108285D01*
X11077285Y-5870284D02*
X11077285Y-5813715D01*
X11020716Y-5813715D01*
X11020716Y-5870284D01*
X11077285Y-5870284D01*
X11331284Y-5108285D02*
X11331284Y-5051716D01*
X11274715Y-5051716D01*
X11274715Y-5108285D01*
X11331284Y-5108285D01*
X11331284Y-5870284D02*
X11331284Y-5813715D01*
X11274715Y-5813715D01*
X11274715Y-5870284D01*
X11331284Y-5870284D01*
X11585284Y-5108285D02*
X11585284Y-5051716D01*
X11528715Y-5051716D01*
X11528715Y-5108285D01*
X11585284Y-5108285D01*
X11585284Y-5870284D02*
X11585284Y-5813715D01*
X11528715Y-5813715D01*
X11528715Y-5870284D01*
X11585284Y-5870284D01*
X11839284Y-5108285D02*
X11839284Y-5051716D01*
X11782715Y-5051716D01*
X11782715Y-5108285D01*
X11839284Y-5108285D01*
X11839284Y-5870284D02*
X11839284Y-5813715D01*
X11782715Y-5813715D01*
X11782715Y-5870284D01*
X11839284Y-5870284D01*
X12093284Y-5108285D02*
X12093284Y-5051716D01*
X12036715Y-5051716D01*
X12036715Y-5108285D01*
X12093284Y-5108285D01*
X12093284Y-5870284D02*
X12093284Y-5813715D01*
X12036715Y-5813715D01*
X12036715Y-5870284D01*
X12093284Y-5870284D01*
X12982284Y-5108285D02*
X12982284Y-5051716D01*
X12925715Y-5051716D01*
X12925715Y-5108285D01*
X12982284Y-5108285D01*
X12982284Y-5870284D02*
X12982284Y-5813715D01*
X12925715Y-5813715D01*
X12925715Y-5870284D01*
X12982284Y-5870284D01*
X13236284Y-5108285D02*
X13236284Y-5051716D01*
X13179715Y-5051716D01*
X13179715Y-5108285D01*
X13236284Y-5108285D01*
X13236284Y-5870284D02*
X13236284Y-5813715D01*
X13179715Y-5813715D01*
X13179715Y-5870284D01*
X13236284Y-5870284D01*
X13490284Y-5108285D02*
X13490284Y-5051716D01*
X13433715Y-5051716D01*
X13433715Y-5108285D01*
X13490284Y-5108285D01*
X13490284Y-5870284D02*
X13490284Y-5813715D01*
X13433715Y-5813715D01*
X13433715Y-5870284D01*
X13490284Y-5870284D01*
X13744284Y-5108285D02*
X13744284Y-5051716D01*
X13687715Y-5051716D01*
X13687715Y-5108285D01*
X13744284Y-5108285D01*
X13744284Y-5870284D02*
X13744284Y-5813715D01*
X13687715Y-5813715D01*
X13687715Y-5870284D01*
X13744284Y-5870284D01*
X13998284Y-5108285D02*
X13998284Y-5051716D01*
X13941715Y-5051716D01*
X13941715Y-5108285D01*
X13998284Y-5108285D01*
X13998284Y-5870284D02*
X13998284Y-5813715D01*
X13941715Y-5813715D01*
X13941715Y-5870284D01*
X13998284Y-5870284D01*
X14252284Y-5108285D02*
X14252284Y-5051716D01*
X14195715Y-5051716D01*
X14195715Y-5108285D01*
X14252284Y-5108285D01*
X14252284Y-5870284D02*
X14252284Y-5813715D01*
X14195715Y-5813715D01*
X14195715Y-5870284D01*
X14252284Y-5870284D01*
X14506284Y-5108285D02*
X14506284Y-5051716D01*
X14449715Y-5051716D01*
X14449715Y-5108285D01*
X14506284Y-5108285D01*
X14506284Y-5870284D02*
X14506284Y-5813715D01*
X14449715Y-5813715D01*
X14449715Y-5870284D01*
X14506284Y-5870284D01*
X14760284Y-5108285D02*
X14760284Y-5051716D01*
X14703715Y-5051716D01*
X14703715Y-5108285D01*
X14760284Y-5108285D01*
X14760284Y-5870284D02*
X14760284Y-5813715D01*
X14703715Y-5813715D01*
X14703715Y-5870284D01*
X14760284Y-5870284D01*
X15141284Y-6949784D02*
X15141284Y-6893215D01*
X15084715Y-6893215D01*
X15084715Y-6949784D01*
X15141284Y-6949784D01*
X15141284Y-8473785D02*
X15141284Y-8417216D01*
X15084715Y-8417216D01*
X15084715Y-8473785D01*
X15141284Y-8473785D01*
X15141284Y-8791285D02*
X15141284Y-8734716D01*
X15084715Y-8734716D01*
X15084715Y-8791285D01*
X15141284Y-8791285D01*
X15141284Y-10315285D02*
X15141284Y-10258716D01*
X15084715Y-10258716D01*
X15084715Y-10315285D01*
X15141284Y-10315285D01*
X15395284Y-6949784D02*
X15395284Y-6893215D01*
X15338715Y-6893215D01*
X15338715Y-6949784D01*
X15395284Y-6949784D01*
X15395284Y-8473785D02*
X15395284Y-8417216D01*
X15338715Y-8417216D01*
X15338715Y-8473785D01*
X15395284Y-8473785D01*
X15395284Y-8791285D02*
X15395284Y-8734716D01*
X15338715Y-8734716D01*
X15338715Y-8791285D01*
X15395284Y-8791285D01*
X15395284Y-10315285D02*
X15395284Y-10258716D01*
X15338715Y-10258716D01*
X15338715Y-10315285D01*
X15395284Y-10315285D01*
X15649284Y-5108285D02*
X15649284Y-5051716D01*
X15592715Y-5051716D01*
X15592715Y-5108285D01*
X15649284Y-5108285D01*
X15649284Y-5870284D02*
X15649284Y-5813715D01*
X15592715Y-5813715D01*
X15592715Y-5870284D01*
X15649284Y-5870284D01*
X15649284Y-6949784D02*
X15649284Y-6893215D01*
X15592715Y-6893215D01*
X15592715Y-6949784D01*
X15649284Y-6949784D01*
X15649284Y-8473785D02*
X15649284Y-8417216D01*
X15592715Y-8417216D01*
X15592715Y-8473785D01*
X15649284Y-8473785D01*
X15649284Y-8791285D02*
X15649284Y-8734716D01*
X15592715Y-8734716D01*
X15592715Y-8791285D01*
X15649284Y-8791285D01*
X15649284Y-10315285D02*
X15649284Y-10258716D01*
X15592715Y-10258716D01*
X15592715Y-10315285D01*
X15649284Y-10315285D01*
X15903284Y-5108285D02*
X15903284Y-5051716D01*
X15846715Y-5051716D01*
X15846715Y-5108285D01*
X15903284Y-5108285D01*
X15903284Y-5870284D02*
X15903284Y-5813715D01*
X15846715Y-5813715D01*
X15846715Y-5870284D01*
X15903284Y-5870284D01*
X15903284Y-6949784D02*
X15903284Y-6893215D01*
X15846715Y-6893215D01*
X15846715Y-6949784D01*
X15903284Y-6949784D01*
X15903284Y-8473785D02*
X15903284Y-8417216D01*
X15846715Y-8417216D01*
X15846715Y-8473785D01*
X15903284Y-8473785D01*
X15903284Y-8791285D02*
X15903284Y-8734716D01*
X15846715Y-8734716D01*
X15846715Y-8791285D01*
X15903284Y-8791285D01*
X15903284Y-10315285D02*
X15903284Y-10258716D01*
X15846715Y-10258716D01*
X15846715Y-10315285D01*
X15903284Y-10315285D01*
X16157284Y-5108285D02*
X16157284Y-5051716D01*
X16100715Y-5051716D01*
X16100715Y-5108285D01*
X16157284Y-5108285D01*
X16157284Y-5870284D02*
X16157284Y-5813715D01*
X16100715Y-5813715D01*
X16100715Y-5870284D01*
X16157284Y-5870284D01*
X16157284Y-6949784D02*
X16157284Y-6893215D01*
X16100715Y-6893215D01*
X16100715Y-6949784D01*
X16157284Y-6949784D01*
X16157284Y-8473785D02*
X16157284Y-8417216D01*
X16100715Y-8417216D01*
X16100715Y-8473785D01*
X16157284Y-8473785D01*
X16157284Y-8791285D02*
X16157284Y-8734716D01*
X16100715Y-8734716D01*
X16100715Y-8791285D01*
X16157284Y-8791285D01*
X16157284Y-10315285D02*
X16157284Y-10258716D01*
X16100715Y-10258716D01*
X16100715Y-10315285D01*
X16157284Y-10315285D01*
X16411284Y-5108285D02*
X16411284Y-5051716D01*
X16354715Y-5051716D01*
X16354715Y-5108285D01*
X16411284Y-5108285D01*
X16411284Y-5870284D02*
X16411284Y-5813715D01*
X16354715Y-5813715D01*
X16354715Y-5870284D01*
X16411284Y-5870284D01*
X16411284Y-6949784D02*
X16411284Y-6893215D01*
X16354715Y-6893215D01*
X16354715Y-6949784D01*
X16411284Y-6949784D01*
X16411284Y-8473785D02*
X16411284Y-8417216D01*
X16354715Y-8417216D01*
X16354715Y-8473785D01*
X16411284Y-8473785D01*
X16411284Y-8791285D02*
X16411284Y-8734716D01*
X16354715Y-8734716D01*
X16354715Y-8791285D01*
X16411284Y-8791285D01*
X16411284Y-10315285D02*
X16411284Y-10258716D01*
X16354715Y-10258716D01*
X16354715Y-10315285D01*
X16411284Y-10315285D01*
X16665284Y-5108285D02*
X16665284Y-5051716D01*
X16608715Y-5051716D01*
X16608715Y-5108285D01*
X16665284Y-5108285D01*
X16665284Y-5870284D02*
X16665284Y-5813715D01*
X16608715Y-5813715D01*
X16608715Y-5870284D01*
X16665284Y-5870284D01*
X16665284Y-6949784D02*
X16665284Y-6893215D01*
X16608715Y-6893215D01*
X16608715Y-6949784D01*
X16665284Y-6949784D01*
X16665284Y-8473785D02*
X16665284Y-8417216D01*
X16608715Y-8417216D01*
X16608715Y-8473785D01*
X16665284Y-8473785D01*
X16665284Y-8791285D02*
X16665284Y-8734716D01*
X16608715Y-8734716D01*
X16608715Y-8791285D01*
X16665284Y-8791285D01*
X16665284Y-10315285D02*
X16665284Y-10258716D01*
X16608715Y-10258716D01*
X16608715Y-10315285D01*
X16665284Y-10315285D01*
X16919285Y-5108285D02*
X16919285Y-5051716D01*
X16862716Y-5051716D01*
X16862716Y-5108285D01*
X16919285Y-5108285D01*
X16919285Y-5870284D02*
X16919285Y-5813715D01*
X16862716Y-5813715D01*
X16862716Y-5870284D01*
X16919285Y-5870284D01*
X16919285Y-6949784D02*
X16919285Y-6893215D01*
X16862716Y-6893215D01*
X16862716Y-6949784D01*
X16919285Y-6949784D01*
X16919285Y-8473785D02*
X16919285Y-8417216D01*
X16862716Y-8417216D01*
X16862716Y-8473785D01*
X16919285Y-8473785D01*
X16919285Y-8791285D02*
X16919285Y-8734716D01*
X16862716Y-8734716D01*
X16862716Y-8791285D01*
X16919285Y-8791285D01*
X16919285Y-10315285D02*
X16919285Y-10258716D01*
X16862716Y-10258716D01*
X16862716Y-10315285D01*
X16919285Y-10315285D01*
X17173285Y-5108285D02*
X17173285Y-5051716D01*
X17116716Y-5051716D01*
X17116716Y-5108285D01*
X17173285Y-5108285D01*
X17173285Y-5870284D02*
X17173285Y-5813715D01*
X17116716Y-5813715D01*
X17116716Y-5870284D01*
X17173285Y-5870284D01*
X17173285Y-6949784D02*
X17173285Y-6893215D01*
X17116716Y-6893215D01*
X17116716Y-6949784D01*
X17173285Y-6949784D01*
X17173285Y-8473785D02*
X17173285Y-8417216D01*
X17116716Y-8417216D01*
X17116716Y-8473785D01*
X17173285Y-8473785D01*
X17173285Y-8791285D02*
X17173285Y-8734716D01*
X17116716Y-8734716D01*
X17116716Y-8791285D01*
X17173285Y-8791285D01*
X17173285Y-10315285D02*
X17173285Y-10258716D01*
X17116716Y-10258716D01*
X17116716Y-10315285D01*
X17173285Y-10315285D01*
X17427285Y-5108285D02*
X17427285Y-5051716D01*
X17370716Y-5051716D01*
X17370716Y-5108285D01*
X17427285Y-5108285D01*
X17427285Y-5870284D02*
X17427285Y-5813715D01*
X17370716Y-5813715D01*
X17370716Y-5870284D01*
X17427285Y-5870284D01*
X17427285Y-6949784D02*
X17427285Y-6893215D01*
X17370716Y-6893215D01*
X17370716Y-6949784D01*
X17427285Y-6949784D01*
X17427285Y-8473785D02*
X17427285Y-8417216D01*
X17370716Y-8417216D01*
X17370716Y-8473785D01*
X17427285Y-8473785D01*
X17427285Y-8791285D02*
X17427285Y-8734716D01*
X17370716Y-8734716D01*
X17370716Y-8791285D01*
X17427285Y-8791285D01*
X17427285Y-10315285D02*
X17427285Y-10258716D01*
X17370716Y-10258716D01*
X17370716Y-10315285D01*
X17427285Y-10315285D01*
X17681285Y-6949784D02*
X17681285Y-6893215D01*
X17624716Y-6893215D01*
X17624716Y-6949784D01*
X17681285Y-6949784D01*
X17681285Y-8473785D02*
X17681285Y-8417216D01*
X17624716Y-8417216D01*
X17624716Y-8473785D01*
X17681285Y-8473785D01*
X17681285Y-8791285D02*
X17681285Y-8734716D01*
X17624716Y-8734716D01*
X17624716Y-8791285D01*
X17681285Y-8791285D01*
X17681285Y-10315285D02*
X17681285Y-10258716D01*
X17624716Y-10258716D01*
X17624716Y-10315285D01*
X17681285Y-10315285D01*
X17935285Y-6949784D02*
X17935285Y-6893215D01*
X17878716Y-6893215D01*
X17878716Y-6949784D01*
X17935285Y-6949784D01*
X17935285Y-8473785D02*
X17935285Y-8417216D01*
X17878716Y-8417216D01*
X17878716Y-8473785D01*
X17935285Y-8473785D01*
X17935285Y-8791285D02*
X17935285Y-8734716D01*
X17878716Y-8734716D01*
X17878716Y-8791285D01*
X17935285Y-8791285D01*
X17935285Y-10315285D02*
X17935285Y-10258716D01*
X17878716Y-10258716D01*
X17878716Y-10315285D01*
X17935285Y-10315285D01*
X18189285Y-6949784D02*
X18189285Y-6893215D01*
X18132716Y-6893215D01*
X18132716Y-6949784D01*
X18189285Y-6949784D01*
X18189285Y-8473785D02*
X18189285Y-8417216D01*
X18132716Y-8417216D01*
X18132716Y-8473785D01*
X18189285Y-8473785D01*
X18189285Y-8791285D02*
X18189285Y-8734716D01*
X18132716Y-8734716D01*
X18132716Y-8791285D01*
X18189285Y-8791285D01*
X18189285Y-10315285D02*
X18189285Y-10258716D01*
X18132716Y-10258716D01*
X18132716Y-10315285D01*
X18189285Y-10315285D01*
X18443285Y-6949784D02*
X18443285Y-6893215D01*
X18386716Y-6893215D01*
X18386716Y-6949784D01*
X18443285Y-6949784D01*
X18443285Y-8473785D02*
X18443285Y-8417216D01*
X18386716Y-8417216D01*
X18386716Y-8473785D01*
X18443285Y-8473785D01*
X18443285Y-8791285D02*
X18443285Y-8734716D01*
X18386716Y-8734716D01*
X18386716Y-8791285D01*
X18443285Y-8791285D01*
X18443285Y-10315285D02*
X18443285Y-10258716D01*
X18386716Y-10258716D01*
X18386716Y-10315285D01*
X18443285Y-10315285D01*
X9334500Y-8114500D02*
X9384500Y-8064500D01*
X9334500Y-8014500D01*
X9284500Y-8064500D01*
X9334500Y-8114500D01*
X9334500Y-8368500D02*
X9384500Y-8318500D01*
X9334500Y-8268500D01*
X9284500Y-8318500D01*
X9334500Y-8368500D01*
X9334500Y-8622500D02*
X9384500Y-8572500D01*
X9334500Y-8522500D01*
X9284500Y-8572500D01*
X9334500Y-8622500D01*
X9334500Y-8876500D02*
X9384500Y-8826500D01*
X9334500Y-8776500D01*
X9284500Y-8826500D01*
X9334500Y-8876500D01*
X9334500Y-9130500D02*
X9384500Y-9080500D01*
X9334500Y-9030500D01*
X9284500Y-9080500D01*
X9334500Y-9130500D01*
X9334500Y-9384500D02*
X9384500Y-9334500D01*
X9334500Y-9284500D01*
X9284500Y-9334500D01*
X9334500Y-9384500D01*
X9334500Y-9638500D02*
X9384500Y-9588500D01*
X9334500Y-9538500D01*
X9284500Y-9588500D01*
X9334500Y-9638500D01*
X9334500Y-9892500D02*
X9384500Y-9842500D01*
X9334500Y-9792500D01*
X9284500Y-9842500D01*
X9334500Y-9892500D01*
X9446500Y-5251500D02*
X9496500Y-5201500D01*
X9446500Y-5151500D01*
X9396500Y-5201500D01*
X9446500Y-5251500D01*
X9446500Y-5701500D02*
X9496500Y-5651500D01*
X9446500Y-5601500D01*
X9396500Y-5651500D01*
X9446500Y-5701500D01*
X10096500Y-5251500D02*
X10146500Y-5201500D01*
X10096500Y-5151500D01*
X10046500Y-5201500D01*
X10096500Y-5251500D01*
X10096500Y-5701500D02*
X10146500Y-5651500D01*
X10096500Y-5601500D01*
X10046500Y-5651500D01*
X10096500Y-5701500D01*
X18034000Y-5765000D02*
X18084000Y-5715000D01*
X18034000Y-5665000D01*
X17984000Y-5715000D01*
X18034000Y-5765000D01*
X18288000Y-5765000D02*
X18338000Y-5715000D01*
X18288000Y-5665000D01*
X18238000Y-5715000D01*
X18288000Y-5765000D01*
X18542000Y-5765000D02*
X18592000Y-5715000D01*
X18542000Y-5665000D01*
X18492000Y-5715000D01*
X18542000Y-5765000D01*
D11*
X9402679Y-11942514D02*
X9402679Y-11642514D01*
X9474107Y-11642514D01*
X9516964Y-11656800D01*
X9545536Y-11685371D01*
X9559821Y-11713943D01*
X9574107Y-11771086D01*
X9574107Y-11813943D01*
X9559821Y-11871086D01*
X9545536Y-11899657D01*
X9516964Y-11928228D01*
X9474107Y-11942514D01*
X9402679Y-11942514D01*
X9702679Y-11942514D02*
X9702679Y-11742514D01*
X9702679Y-11799657D02*
X9716964Y-11771086D01*
X9731250Y-11756800D01*
X9759821Y-11742514D01*
X9788393Y-11742514D01*
X9888393Y-11942514D02*
X9888393Y-11742514D01*
X9888393Y-11642514D02*
X9874107Y-11656800D01*
X9888393Y-11671086D01*
X9902679Y-11656800D01*
X9888393Y-11642514D01*
X9888393Y-11671086D01*
X10074107Y-11942514D02*
X10045536Y-11928228D01*
X10031250Y-11899657D01*
X10031250Y-11642514D01*
X10231250Y-11942514D02*
X10202679Y-11928228D01*
X10188393Y-11899657D01*
X10188393Y-11642514D01*
X10574107Y-11942514D02*
X10574107Y-11642514D01*
X10674107Y-11856800D01*
X10774107Y-11642514D01*
X10774107Y-11942514D01*
X11045536Y-11942514D02*
X11045536Y-11785371D01*
X11031250Y-11756800D01*
X11002679Y-11742514D01*
X10945536Y-11742514D01*
X10916964Y-11756800D01*
X11045536Y-11928228D02*
X11016964Y-11942514D01*
X10945536Y-11942514D01*
X10916964Y-11928228D01*
X10902679Y-11899657D01*
X10902679Y-11871086D01*
X10916964Y-11842514D01*
X10945536Y-11828228D01*
X11016964Y-11828228D01*
X11045536Y-11813943D01*
X11188393Y-11742514D02*
X11188393Y-12042514D01*
X11188393Y-11756800D02*
X11216964Y-11742514D01*
X11274107Y-11742514D01*
X11302678Y-11756800D01*
X11316964Y-11771086D01*
X11331250Y-11799657D01*
X11331250Y-11885371D01*
X11316964Y-11913943D01*
X11302678Y-11928228D01*
X11274107Y-11942514D01*
X11216964Y-11942514D01*
X11188393Y-11928228D01*
X11459821Y-11913943D02*
X11474107Y-11928228D01*
X11459821Y-11942514D01*
X11445536Y-11928228D01*
X11459821Y-11913943D01*
X11459821Y-11942514D01*
X11459821Y-11756800D02*
X11474107Y-11771086D01*
X11459821Y-11785371D01*
X11445536Y-11771086D01*
X11459821Y-11756800D01*
X11459821Y-11785371D01*
X9081250Y-12419300D02*
X9116250Y-12454300D01*
X9116250Y-12419300D02*
X9081250Y-12454300D01*
X9459821Y-12272514D02*
X9488393Y-12272514D01*
X9516964Y-12286800D01*
X9531250Y-12301086D01*
X9545536Y-12329657D01*
X9559821Y-12386800D01*
X9559821Y-12458228D01*
X9545536Y-12515371D01*
X9531250Y-12543943D01*
X9516964Y-12558228D01*
X9488393Y-12572514D01*
X9459821Y-12572514D01*
X9431250Y-12558228D01*
X9416964Y-12543943D01*
X9402679Y-12515371D01*
X9388393Y-12458228D01*
X9388393Y-12386800D01*
X9402679Y-12329657D01*
X9416964Y-12301086D01*
X9431250Y-12286800D01*
X9459821Y-12272514D01*
X9688393Y-12543943D02*
X9702679Y-12558228D01*
X9688393Y-12572514D01*
X9674107Y-12558228D01*
X9688393Y-12543943D01*
X9688393Y-12572514D01*
X9802679Y-12272514D02*
X9988393Y-12272514D01*
X9888393Y-12386800D01*
X9931250Y-12386800D01*
X9959821Y-12401086D01*
X9974107Y-12415371D01*
X9988393Y-12443943D01*
X9988393Y-12515371D01*
X9974107Y-12543943D01*
X9959821Y-12558228D01*
X9931250Y-12572514D01*
X9845536Y-12572514D01*
X9816964Y-12558228D01*
X9802679Y-12543943D01*
X10259821Y-12272514D02*
X10116964Y-12272514D01*
X10102679Y-12415371D01*
X10116964Y-12401086D01*
X10145536Y-12386800D01*
X10216964Y-12386800D01*
X10245536Y-12401086D01*
X10259821Y-12415371D01*
X10274107Y-12443943D01*
X10274107Y-12515371D01*
X10259821Y-12543943D01*
X10245536Y-12558228D01*
X10216964Y-12572514D01*
X10145536Y-12572514D01*
X10116964Y-12558228D01*
X10102679Y-12543943D01*
X10459821Y-12272514D02*
X10488393Y-12272514D01*
X10516964Y-12286800D01*
X10531250Y-12301086D01*
X10545536Y-12329657D01*
X10559821Y-12386800D01*
X10559821Y-12458228D01*
X10545536Y-12515371D01*
X10531250Y-12543943D01*
X10516964Y-12558228D01*
X10488393Y-12572514D01*
X10459821Y-12572514D01*
X10431250Y-12558228D01*
X10416964Y-12543943D01*
X10402679Y-12515371D01*
X10388393Y-12458228D01*
X10388393Y-12386800D01*
X10402679Y-12329657D01*
X10416964Y-12301086D01*
X10431250Y-12286800D01*
X10459821Y-12272514D01*
X10688393Y-12572514D02*
X10688393Y-12372514D01*
X10688393Y-12401086D02*
X10702679Y-12386800D01*
X10731250Y-12372514D01*
X10774107Y-12372514D01*
X10802679Y-12386800D01*
X10816964Y-12415371D01*
X10816964Y-12572514D01*
X10816964Y-12415371D02*
X10831250Y-12386800D01*
X10859821Y-12372514D01*
X10902679Y-12372514D01*
X10931250Y-12386800D01*
X10945536Y-12415371D01*
X10945536Y-12572514D01*
X11088393Y-12572514D02*
X11088393Y-12372514D01*
X11088393Y-12401086D02*
X11102679Y-12386800D01*
X11131250Y-12372514D01*
X11174107Y-12372514D01*
X11202678Y-12386800D01*
X11216964Y-12415371D01*
X11216964Y-12572514D01*
X11216964Y-12415371D02*
X11231250Y-12386800D01*
X11259821Y-12372514D01*
X11302678Y-12372514D01*
X11331250Y-12386800D01*
X11345536Y-12415371D01*
X11345536Y-12572514D01*
X11931250Y-12258228D02*
X11674107Y-12643943D01*
X12316964Y-12272514D02*
X12345536Y-12272514D01*
X12374107Y-12286800D01*
X12388393Y-12301086D01*
X12402678Y-12329657D01*
X12416964Y-12386800D01*
X12416964Y-12458228D01*
X12402678Y-12515371D01*
X12388393Y-12543943D01*
X12374107Y-12558228D01*
X12345536Y-12572514D01*
X12316964Y-12572514D01*
X12288393Y-12558228D01*
X12274107Y-12543943D01*
X12259821Y-12515371D01*
X12245536Y-12458228D01*
X12245536Y-12386800D01*
X12259821Y-12329657D01*
X12274107Y-12301086D01*
X12288393Y-12286800D01*
X12316964Y-12272514D01*
X12545536Y-12543943D02*
X12559821Y-12558228D01*
X12545536Y-12572514D01*
X12531250Y-12558228D01*
X12545536Y-12543943D01*
X12545536Y-12572514D01*
X12745536Y-12272514D02*
X12774107Y-12272514D01*
X12802678Y-12286800D01*
X12816964Y-12301086D01*
X12831250Y-12329657D01*
X12845536Y-12386800D01*
X12845536Y-12458228D01*
X12831250Y-12515371D01*
X12816964Y-12543943D01*
X12802678Y-12558228D01*
X12774107Y-12572514D01*
X12745536Y-12572514D01*
X12716964Y-12558228D01*
X12702678Y-12543943D01*
X12688393Y-12515371D01*
X12674107Y-12458228D01*
X12674107Y-12386800D01*
X12688393Y-12329657D01*
X12702678Y-12301086D01*
X12716964Y-12286800D01*
X12745536Y-12272514D01*
X13131250Y-12572514D02*
X12959821Y-12572514D01*
X13045536Y-12572514D02*
X13045536Y-12272514D01*
X13016964Y-12315371D01*
X12988393Y-12343943D01*
X12959821Y-12358228D01*
X13231250Y-12272514D02*
X13416964Y-12272514D01*
X13316964Y-12386800D01*
X13359821Y-12386800D01*
X13388393Y-12401086D01*
X13402678Y-12415371D01*
X13416964Y-12443943D01*
X13416964Y-12515371D01*
X13402678Y-12543943D01*
X13388393Y-12558228D01*
X13359821Y-12572514D01*
X13274107Y-12572514D01*
X13245536Y-12558228D01*
X13231250Y-12543943D01*
X13588393Y-12401086D02*
X13559821Y-12386800D01*
X13545536Y-12372514D01*
X13531250Y-12343943D01*
X13531250Y-12329657D01*
X13545536Y-12301086D01*
X13559821Y-12286800D01*
X13588393Y-12272514D01*
X13645536Y-12272514D01*
X13674107Y-12286800D01*
X13688393Y-12301086D01*
X13702678Y-12329657D01*
X13702678Y-12343943D01*
X13688393Y-12372514D01*
X13674107Y-12386800D01*
X13645536Y-12401086D01*
X13588393Y-12401086D01*
X13559821Y-12415371D01*
X13545536Y-12429657D01*
X13531250Y-12458228D01*
X13531250Y-12515371D01*
X13545536Y-12543943D01*
X13559821Y-12558228D01*
X13588393Y-12572514D01*
X13645536Y-12572514D01*
X13674107Y-12558228D01*
X13688393Y-12543943D01*
X13702678Y-12515371D01*
X13702678Y-12458228D01*
X13688393Y-12429657D01*
X13674107Y-12415371D01*
X13645536Y-12401086D01*
X13816964Y-12272514D02*
X13816964Y-12329657D01*
X13931250Y-12272514D02*
X13931250Y-12329657D01*
X14374107Y-12686800D02*
X14359821Y-12672514D01*
X14331250Y-12629657D01*
X14316964Y-12601086D01*
X14302678Y-12558228D01*
X14288393Y-12486800D01*
X14288393Y-12429657D01*
X14302678Y-12358228D01*
X14316964Y-12315371D01*
X14331250Y-12286800D01*
X14359821Y-12243943D01*
X14374107Y-12229657D01*
X14459821Y-12272514D02*
X14645536Y-12272514D01*
X14545536Y-12386800D01*
X14588393Y-12386800D01*
X14616964Y-12401086D01*
X14631250Y-12415371D01*
X14645536Y-12443943D01*
X14645536Y-12515371D01*
X14631250Y-12543943D01*
X14616964Y-12558228D01*
X14588393Y-12572514D01*
X14502678Y-12572514D01*
X14474107Y-12558228D01*
X14459821Y-12543943D01*
X14759821Y-12301086D02*
X14774107Y-12286800D01*
X14802678Y-12272514D01*
X14874107Y-12272514D01*
X14902678Y-12286800D01*
X14916964Y-12301086D01*
X14931250Y-12329657D01*
X14931250Y-12358228D01*
X14916964Y-12401086D01*
X14745536Y-12572514D01*
X14931250Y-12572514D01*
X15031250Y-12272514D02*
X15231250Y-12272514D01*
X15102678Y-12572514D01*
X15574107Y-12572514D02*
X15574107Y-12272514D01*
X15702678Y-12572514D02*
X15702678Y-12415371D01*
X15688393Y-12386800D01*
X15659821Y-12372514D01*
X15616964Y-12372514D01*
X15588393Y-12386800D01*
X15574107Y-12401086D01*
X15888393Y-12572514D02*
X15859821Y-12558228D01*
X15845536Y-12543943D01*
X15831250Y-12515371D01*
X15831250Y-12429657D01*
X15845536Y-12401086D01*
X15859821Y-12386800D01*
X15888393Y-12372514D01*
X15931250Y-12372514D01*
X15959821Y-12386800D01*
X15974107Y-12401086D01*
X15988393Y-12429657D01*
X15988393Y-12515371D01*
X15974107Y-12543943D01*
X15959821Y-12558228D01*
X15931250Y-12572514D01*
X15888393Y-12572514D01*
X16159821Y-12572514D02*
X16131250Y-12558228D01*
X16116964Y-12529657D01*
X16116964Y-12272514D01*
X16388393Y-12558228D02*
X16359821Y-12572514D01*
X16302678Y-12572514D01*
X16274107Y-12558228D01*
X16259821Y-12529657D01*
X16259821Y-12415371D01*
X16274107Y-12386800D01*
X16302678Y-12372514D01*
X16359821Y-12372514D01*
X16388393Y-12386800D01*
X16402678Y-12415371D01*
X16402678Y-12443943D01*
X16259821Y-12472514D01*
X16516964Y-12558228D02*
X16545536Y-12572514D01*
X16602678Y-12572514D01*
X16631250Y-12558228D01*
X16645536Y-12529657D01*
X16645536Y-12515371D01*
X16631250Y-12486800D01*
X16602678Y-12472514D01*
X16559821Y-12472514D01*
X16531250Y-12458228D01*
X16516964Y-12429657D01*
X16516964Y-12415371D01*
X16531250Y-12386800D01*
X16559821Y-12372514D01*
X16602678Y-12372514D01*
X16631250Y-12386800D01*
X16745536Y-12686800D02*
X16759821Y-12672514D01*
X16788393Y-12629657D01*
X16802679Y-12601086D01*
X16816964Y-12558228D01*
X16831250Y-12486800D01*
X16831250Y-12429657D01*
X16816964Y-12358228D01*
X16802679Y-12315371D01*
X16788393Y-12286800D01*
X16759821Y-12243943D01*
X16745536Y-12229657D01*
X9116250Y-12832800D02*
G75*
G03*
X9116250Y-12832800I-20000J0D01*
G01*
X9459821Y-12668514D02*
X9488393Y-12668514D01*
X9516964Y-12682800D01*
X9531250Y-12697086D01*
X9545536Y-12725657D01*
X9559821Y-12782800D01*
X9559821Y-12854228D01*
X9545536Y-12911371D01*
X9531250Y-12939943D01*
X9516964Y-12954228D01*
X9488393Y-12968514D01*
X9459821Y-12968514D01*
X9431250Y-12954228D01*
X9416964Y-12939943D01*
X9402679Y-12911371D01*
X9388393Y-12854228D01*
X9388393Y-12782800D01*
X9402679Y-12725657D01*
X9416964Y-12697086D01*
X9431250Y-12682800D01*
X9459821Y-12668514D01*
X9688393Y-12939943D02*
X9702679Y-12954228D01*
X9688393Y-12968514D01*
X9674107Y-12954228D01*
X9688393Y-12939943D01*
X9688393Y-12968514D01*
X9959821Y-12768514D02*
X9959821Y-12968514D01*
X9888393Y-12654228D02*
X9816964Y-12868514D01*
X10002679Y-12868514D01*
X10174107Y-12668514D02*
X10202679Y-12668514D01*
X10231250Y-12682800D01*
X10245536Y-12697086D01*
X10259821Y-12725657D01*
X10274107Y-12782800D01*
X10274107Y-12854228D01*
X10259821Y-12911371D01*
X10245536Y-12939943D01*
X10231250Y-12954228D01*
X10202679Y-12968514D01*
X10174107Y-12968514D01*
X10145536Y-12954228D01*
X10131250Y-12939943D01*
X10116964Y-12911371D01*
X10102679Y-12854228D01*
X10102679Y-12782800D01*
X10116964Y-12725657D01*
X10131250Y-12697086D01*
X10145536Y-12682800D01*
X10174107Y-12668514D01*
X10459821Y-12668514D02*
X10488393Y-12668514D01*
X10516964Y-12682800D01*
X10531250Y-12697086D01*
X10545536Y-12725657D01*
X10559821Y-12782800D01*
X10559821Y-12854228D01*
X10545536Y-12911371D01*
X10531250Y-12939943D01*
X10516964Y-12954228D01*
X10488393Y-12968514D01*
X10459821Y-12968514D01*
X10431250Y-12954228D01*
X10416964Y-12939943D01*
X10402679Y-12911371D01*
X10388393Y-12854228D01*
X10388393Y-12782800D01*
X10402679Y-12725657D01*
X10416964Y-12697086D01*
X10431250Y-12682800D01*
X10459821Y-12668514D01*
X10688393Y-12968514D02*
X10688393Y-12768514D01*
X10688393Y-12797086D02*
X10702679Y-12782800D01*
X10731250Y-12768514D01*
X10774107Y-12768514D01*
X10802679Y-12782800D01*
X10816964Y-12811371D01*
X10816964Y-12968514D01*
X10816964Y-12811371D02*
X10831250Y-12782800D01*
X10859821Y-12768514D01*
X10902679Y-12768514D01*
X10931250Y-12782800D01*
X10945536Y-12811371D01*
X10945536Y-12968514D01*
X11088393Y-12968514D02*
X11088393Y-12768514D01*
X11088393Y-12797086D02*
X11102679Y-12782800D01*
X11131250Y-12768514D01*
X11174107Y-12768514D01*
X11202678Y-12782800D01*
X11216964Y-12811371D01*
X11216964Y-12968514D01*
X11216964Y-12811371D02*
X11231250Y-12782800D01*
X11259821Y-12768514D01*
X11302678Y-12768514D01*
X11331250Y-12782800D01*
X11345536Y-12811371D01*
X11345536Y-12968514D01*
X11931250Y-12654228D02*
X11674107Y-13039943D01*
X12316964Y-12668514D02*
X12345536Y-12668514D01*
X12374107Y-12682800D01*
X12388393Y-12697086D01*
X12402678Y-12725657D01*
X12416964Y-12782800D01*
X12416964Y-12854228D01*
X12402678Y-12911371D01*
X12388393Y-12939943D01*
X12374107Y-12954228D01*
X12345536Y-12968514D01*
X12316964Y-12968514D01*
X12288393Y-12954228D01*
X12274107Y-12939943D01*
X12259821Y-12911371D01*
X12245536Y-12854228D01*
X12245536Y-12782800D01*
X12259821Y-12725657D01*
X12274107Y-12697086D01*
X12288393Y-12682800D01*
X12316964Y-12668514D01*
X12545536Y-12939943D02*
X12559821Y-12954228D01*
X12545536Y-12968514D01*
X12531250Y-12954228D01*
X12545536Y-12939943D01*
X12545536Y-12968514D01*
X12745536Y-12668514D02*
X12774107Y-12668514D01*
X12802678Y-12682800D01*
X12816964Y-12697086D01*
X12831250Y-12725657D01*
X12845536Y-12782800D01*
X12845536Y-12854228D01*
X12831250Y-12911371D01*
X12816964Y-12939943D01*
X12802678Y-12954228D01*
X12774107Y-12968514D01*
X12745536Y-12968514D01*
X12716964Y-12954228D01*
X12702678Y-12939943D01*
X12688393Y-12911371D01*
X12674107Y-12854228D01*
X12674107Y-12782800D01*
X12688393Y-12725657D01*
X12702678Y-12697086D01*
X12716964Y-12682800D01*
X12745536Y-12668514D01*
X13131250Y-12968514D02*
X12959821Y-12968514D01*
X13045536Y-12968514D02*
X13045536Y-12668514D01*
X13016964Y-12711371D01*
X12988393Y-12739943D01*
X12959821Y-12754228D01*
X13402678Y-12668514D02*
X13259821Y-12668514D01*
X13245536Y-12811371D01*
X13259821Y-12797086D01*
X13288393Y-12782800D01*
X13359821Y-12782800D01*
X13388393Y-12797086D01*
X13402678Y-12811371D01*
X13416964Y-12839943D01*
X13416964Y-12911371D01*
X13402678Y-12939943D01*
X13388393Y-12954228D01*
X13359821Y-12968514D01*
X13288393Y-12968514D01*
X13259821Y-12954228D01*
X13245536Y-12939943D01*
X13516964Y-12668514D02*
X13716964Y-12668514D01*
X13588393Y-12968514D01*
X13816964Y-12668514D02*
X13816964Y-12725657D01*
X13931250Y-12668514D02*
X13931250Y-12725657D01*
X14374107Y-13082800D02*
X14359821Y-13068514D01*
X14331250Y-13025657D01*
X14316964Y-12997086D01*
X14302678Y-12954228D01*
X14288393Y-12882800D01*
X14288393Y-12825657D01*
X14302678Y-12754228D01*
X14316964Y-12711371D01*
X14331250Y-12682800D01*
X14359821Y-12639943D01*
X14374107Y-12625657D01*
X14474107Y-12697086D02*
X14488393Y-12682800D01*
X14516964Y-12668514D01*
X14588393Y-12668514D01*
X14616964Y-12682800D01*
X14631250Y-12697086D01*
X14645536Y-12725657D01*
X14645536Y-12754228D01*
X14631250Y-12797086D01*
X14459821Y-12968514D01*
X14645536Y-12968514D01*
X14931250Y-12968514D02*
X14759821Y-12968514D01*
X14845536Y-12968514D02*
X14845536Y-12668514D01*
X14816964Y-12711371D01*
X14788393Y-12739943D01*
X14759821Y-12754228D01*
X15288393Y-12968514D02*
X15288393Y-12668514D01*
X15416964Y-12968514D02*
X15416964Y-12811371D01*
X15402678Y-12782800D01*
X15374107Y-12768514D01*
X15331250Y-12768514D01*
X15302678Y-12782800D01*
X15288393Y-12797086D01*
X15602678Y-12968514D02*
X15574107Y-12954228D01*
X15559821Y-12939943D01*
X15545536Y-12911371D01*
X15545536Y-12825657D01*
X15559821Y-12797086D01*
X15574107Y-12782800D01*
X15602678Y-12768514D01*
X15645536Y-12768514D01*
X15674107Y-12782800D01*
X15688393Y-12797086D01*
X15702678Y-12825657D01*
X15702678Y-12911371D01*
X15688393Y-12939943D01*
X15674107Y-12954228D01*
X15645536Y-12968514D01*
X15602678Y-12968514D01*
X15874107Y-12968514D02*
X15845536Y-12954228D01*
X15831250Y-12925657D01*
X15831250Y-12668514D01*
X16102678Y-12954228D02*
X16074107Y-12968514D01*
X16016964Y-12968514D01*
X15988393Y-12954228D01*
X15974107Y-12925657D01*
X15974107Y-12811371D01*
X15988393Y-12782800D01*
X16016964Y-12768514D01*
X16074107Y-12768514D01*
X16102678Y-12782800D01*
X16116964Y-12811371D01*
X16116964Y-12839943D01*
X15974107Y-12868514D01*
X16231250Y-12954228D02*
X16259821Y-12968514D01*
X16316964Y-12968514D01*
X16345536Y-12954228D01*
X16359821Y-12925657D01*
X16359821Y-12911371D01*
X16345536Y-12882800D01*
X16316964Y-12868514D01*
X16274107Y-12868514D01*
X16245536Y-12854228D01*
X16231250Y-12825657D01*
X16231250Y-12811371D01*
X16245536Y-12782800D01*
X16274107Y-12768514D01*
X16316964Y-12768514D01*
X16345536Y-12782800D01*
X16459821Y-13082800D02*
X16474107Y-13068514D01*
X16502678Y-13025657D01*
X16516964Y-12997086D01*
X16531250Y-12954228D01*
X16545536Y-12882800D01*
X16545536Y-12825657D01*
X16531250Y-12754228D01*
X16516964Y-12711371D01*
X16502678Y-12682800D01*
X16474107Y-12639943D01*
X16459821Y-12625657D01*
X9083750Y-13196300D02*
X9083750Y-13261300D01*
X9051250Y-13228800D02*
X9116250Y-13228800D01*
X9459821Y-13064514D02*
X9488393Y-13064514D01*
X9516964Y-13078800D01*
X9531250Y-13093086D01*
X9545536Y-13121657D01*
X9559821Y-13178800D01*
X9559821Y-13250228D01*
X9545536Y-13307371D01*
X9531250Y-13335943D01*
X9516964Y-13350228D01*
X9488393Y-13364514D01*
X9459821Y-13364514D01*
X9431250Y-13350228D01*
X9416964Y-13335943D01*
X9402679Y-13307371D01*
X9388393Y-13250228D01*
X9388393Y-13178800D01*
X9402679Y-13121657D01*
X9416964Y-13093086D01*
X9431250Y-13078800D01*
X9459821Y-13064514D01*
X9688393Y-13335943D02*
X9702679Y-13350228D01*
X9688393Y-13364514D01*
X9674107Y-13350228D01*
X9688393Y-13335943D01*
X9688393Y-13364514D01*
X9959821Y-13064514D02*
X9902679Y-13064514D01*
X9874107Y-13078800D01*
X9859821Y-13093086D01*
X9831250Y-13135943D01*
X9816964Y-13193086D01*
X9816964Y-13307371D01*
X9831250Y-13335943D01*
X9845536Y-13350228D01*
X9874107Y-13364514D01*
X9931250Y-13364514D01*
X9959821Y-13350228D01*
X9974107Y-13335943D01*
X9988393Y-13307371D01*
X9988393Y-13235943D01*
X9974107Y-13207371D01*
X9959821Y-13193086D01*
X9931250Y-13178800D01*
X9874107Y-13178800D01*
X9845536Y-13193086D01*
X9831250Y-13207371D01*
X9816964Y-13235943D01*
X10259821Y-13064514D02*
X10116964Y-13064514D01*
X10102679Y-13207371D01*
X10116964Y-13193086D01*
X10145536Y-13178800D01*
X10216964Y-13178800D01*
X10245536Y-13193086D01*
X10259821Y-13207371D01*
X10274107Y-13235943D01*
X10274107Y-13307371D01*
X10259821Y-13335943D01*
X10245536Y-13350228D01*
X10216964Y-13364514D01*
X10145536Y-13364514D01*
X10116964Y-13350228D01*
X10102679Y-13335943D01*
X10459821Y-13064514D02*
X10488393Y-13064514D01*
X10516964Y-13078800D01*
X10531250Y-13093086D01*
X10545536Y-13121657D01*
X10559821Y-13178800D01*
X10559821Y-13250228D01*
X10545536Y-13307371D01*
X10531250Y-13335943D01*
X10516964Y-13350228D01*
X10488393Y-13364514D01*
X10459821Y-13364514D01*
X10431250Y-13350228D01*
X10416964Y-13335943D01*
X10402679Y-13307371D01*
X10388393Y-13250228D01*
X10388393Y-13178800D01*
X10402679Y-13121657D01*
X10416964Y-13093086D01*
X10431250Y-13078800D01*
X10459821Y-13064514D01*
X10688393Y-13364514D02*
X10688393Y-13164514D01*
X10688393Y-13193086D02*
X10702679Y-13178800D01*
X10731250Y-13164514D01*
X10774107Y-13164514D01*
X10802679Y-13178800D01*
X10816964Y-13207371D01*
X10816964Y-13364514D01*
X10816964Y-13207371D02*
X10831250Y-13178800D01*
X10859821Y-13164514D01*
X10902679Y-13164514D01*
X10931250Y-13178800D01*
X10945536Y-13207371D01*
X10945536Y-13364514D01*
X11088393Y-13364514D02*
X11088393Y-13164514D01*
X11088393Y-13193086D02*
X11102679Y-13178800D01*
X11131250Y-13164514D01*
X11174107Y-13164514D01*
X11202678Y-13178800D01*
X11216964Y-13207371D01*
X11216964Y-13364514D01*
X11216964Y-13207371D02*
X11231250Y-13178800D01*
X11259821Y-13164514D01*
X11302678Y-13164514D01*
X11331250Y-13178800D01*
X11345536Y-13207371D01*
X11345536Y-13364514D01*
X11931250Y-13050228D02*
X11674107Y-13435943D01*
X12316964Y-13064514D02*
X12345536Y-13064514D01*
X12374107Y-13078800D01*
X12388393Y-13093086D01*
X12402678Y-13121657D01*
X12416964Y-13178800D01*
X12416964Y-13250228D01*
X12402678Y-13307371D01*
X12388393Y-13335943D01*
X12374107Y-13350228D01*
X12345536Y-13364514D01*
X12316964Y-13364514D01*
X12288393Y-13350228D01*
X12274107Y-13335943D01*
X12259821Y-13307371D01*
X12245536Y-13250228D01*
X12245536Y-13178800D01*
X12259821Y-13121657D01*
X12274107Y-13093086D01*
X12288393Y-13078800D01*
X12316964Y-13064514D01*
X12545536Y-13335943D02*
X12559821Y-13350228D01*
X12545536Y-13364514D01*
X12531250Y-13350228D01*
X12545536Y-13335943D01*
X12545536Y-13364514D01*
X12745536Y-13064514D02*
X12774107Y-13064514D01*
X12802678Y-13078800D01*
X12816964Y-13093086D01*
X12831250Y-13121657D01*
X12845536Y-13178800D01*
X12845536Y-13250228D01*
X12831250Y-13307371D01*
X12816964Y-13335943D01*
X12802678Y-13350228D01*
X12774107Y-13364514D01*
X12745536Y-13364514D01*
X12716964Y-13350228D01*
X12702678Y-13335943D01*
X12688393Y-13307371D01*
X12674107Y-13250228D01*
X12674107Y-13178800D01*
X12688393Y-13121657D01*
X12702678Y-13093086D01*
X12716964Y-13078800D01*
X12745536Y-13064514D01*
X12959821Y-13093086D02*
X12974107Y-13078800D01*
X13002678Y-13064514D01*
X13074107Y-13064514D01*
X13102678Y-13078800D01*
X13116964Y-13093086D01*
X13131250Y-13121657D01*
X13131250Y-13150228D01*
X13116964Y-13193086D01*
X12945536Y-13364514D01*
X13131250Y-13364514D01*
X13402678Y-13064514D02*
X13259821Y-13064514D01*
X13245536Y-13207371D01*
X13259821Y-13193086D01*
X13288393Y-13178800D01*
X13359821Y-13178800D01*
X13388393Y-13193086D01*
X13402678Y-13207371D01*
X13416964Y-13235943D01*
X13416964Y-13307371D01*
X13402678Y-13335943D01*
X13388393Y-13350228D01*
X13359821Y-13364514D01*
X13288393Y-13364514D01*
X13259821Y-13350228D01*
X13245536Y-13335943D01*
X13674107Y-13064514D02*
X13616964Y-13064514D01*
X13588393Y-13078800D01*
X13574107Y-13093086D01*
X13545536Y-13135943D01*
X13531250Y-13193086D01*
X13531250Y-13307371D01*
X13545536Y-13335943D01*
X13559821Y-13350228D01*
X13588393Y-13364514D01*
X13645536Y-13364514D01*
X13674107Y-13350228D01*
X13688393Y-13335943D01*
X13702678Y-13307371D01*
X13702678Y-13235943D01*
X13688393Y-13207371D01*
X13674107Y-13193086D01*
X13645536Y-13178800D01*
X13588393Y-13178800D01*
X13559821Y-13193086D01*
X13545536Y-13207371D01*
X13531250Y-13235943D01*
X13816964Y-13064514D02*
X13816964Y-13121657D01*
X13931250Y-13064514D02*
X13931250Y-13121657D01*
X14374107Y-13478800D02*
X14359821Y-13464514D01*
X14331250Y-13421657D01*
X14316964Y-13393086D01*
X14302678Y-13350228D01*
X14288393Y-13278800D01*
X14288393Y-13221657D01*
X14302678Y-13150228D01*
X14316964Y-13107371D01*
X14331250Y-13078800D01*
X14359821Y-13035943D01*
X14374107Y-13021657D01*
X14645536Y-13364514D02*
X14474107Y-13364514D01*
X14559821Y-13364514D02*
X14559821Y-13064514D01*
X14531250Y-13107371D01*
X14502678Y-13135943D01*
X14474107Y-13150228D01*
X15002678Y-13364514D02*
X15002678Y-13064514D01*
X15131250Y-13364514D02*
X15131250Y-13207371D01*
X15116964Y-13178800D01*
X15088393Y-13164514D01*
X15045536Y-13164514D01*
X15016964Y-13178800D01*
X15002678Y-13193086D01*
X15316964Y-13364514D02*
X15288393Y-13350228D01*
X15274107Y-13335943D01*
X15259821Y-13307371D01*
X15259821Y-13221657D01*
X15274107Y-13193086D01*
X15288393Y-13178800D01*
X15316964Y-13164514D01*
X15359821Y-13164514D01*
X15388393Y-13178800D01*
X15402678Y-13193086D01*
X15416964Y-13221657D01*
X15416964Y-13307371D01*
X15402678Y-13335943D01*
X15388393Y-13350228D01*
X15359821Y-13364514D01*
X15316964Y-13364514D01*
X15588393Y-13364514D02*
X15559821Y-13350228D01*
X15545536Y-13321657D01*
X15545536Y-13064514D01*
X15816964Y-13350228D02*
X15788393Y-13364514D01*
X15731250Y-13364514D01*
X15702678Y-13350228D01*
X15688393Y-13321657D01*
X15688393Y-13207371D01*
X15702678Y-13178800D01*
X15731250Y-13164514D01*
X15788393Y-13164514D01*
X15816964Y-13178800D01*
X15831250Y-13207371D01*
X15831250Y-13235943D01*
X15688393Y-13264514D01*
X15931250Y-13478800D02*
X15945536Y-13464514D01*
X15974107Y-13421657D01*
X15988393Y-13393086D01*
X16002678Y-13350228D01*
X16016964Y-13278800D01*
X16016964Y-13221657D01*
X16002678Y-13150228D01*
X15988393Y-13107371D01*
X15974107Y-13078800D01*
X15945536Y-13035943D01*
X15931250Y-13021657D01*
X9104535Y-13653084D02*
X9104535Y-13596515D01*
X9047966Y-13596515D01*
X9047966Y-13653084D01*
X9104535Y-13653084D01*
X9459821Y-13460514D02*
X9488393Y-13460514D01*
X9516964Y-13474800D01*
X9531250Y-13489086D01*
X9545536Y-13517657D01*
X9559821Y-13574800D01*
X9559821Y-13646228D01*
X9545536Y-13703371D01*
X9531250Y-13731943D01*
X9516964Y-13746228D01*
X9488393Y-13760514D01*
X9459821Y-13760514D01*
X9431250Y-13746228D01*
X9416964Y-13731943D01*
X9402679Y-13703371D01*
X9388393Y-13646228D01*
X9388393Y-13574800D01*
X9402679Y-13517657D01*
X9416964Y-13489086D01*
X9431250Y-13474800D01*
X9459821Y-13460514D01*
X9688393Y-13731943D02*
X9702679Y-13746228D01*
X9688393Y-13760514D01*
X9674107Y-13746228D01*
X9688393Y-13731943D01*
X9688393Y-13760514D01*
X9874107Y-13589086D02*
X9845536Y-13574800D01*
X9831250Y-13560514D01*
X9816964Y-13531943D01*
X9816964Y-13517657D01*
X9831250Y-13489086D01*
X9845536Y-13474800D01*
X9874107Y-13460514D01*
X9931250Y-13460514D01*
X9959821Y-13474800D01*
X9974107Y-13489086D01*
X9988393Y-13517657D01*
X9988393Y-13531943D01*
X9974107Y-13560514D01*
X9959821Y-13574800D01*
X9931250Y-13589086D01*
X9874107Y-13589086D01*
X9845536Y-13603371D01*
X9831250Y-13617657D01*
X9816964Y-13646228D01*
X9816964Y-13703371D01*
X9831250Y-13731943D01*
X9845536Y-13746228D01*
X9874107Y-13760514D01*
X9931250Y-13760514D01*
X9959821Y-13746228D01*
X9974107Y-13731943D01*
X9988393Y-13703371D01*
X9988393Y-13646228D01*
X9974107Y-13617657D01*
X9959821Y-13603371D01*
X9931250Y-13589086D01*
X10174107Y-13460514D02*
X10202679Y-13460514D01*
X10231250Y-13474800D01*
X10245536Y-13489086D01*
X10259821Y-13517657D01*
X10274107Y-13574800D01*
X10274107Y-13646228D01*
X10259821Y-13703371D01*
X10245536Y-13731943D01*
X10231250Y-13746228D01*
X10202679Y-13760514D01*
X10174107Y-13760514D01*
X10145536Y-13746228D01*
X10131250Y-13731943D01*
X10116964Y-13703371D01*
X10102679Y-13646228D01*
X10102679Y-13574800D01*
X10116964Y-13517657D01*
X10131250Y-13489086D01*
X10145536Y-13474800D01*
X10174107Y-13460514D01*
X10459821Y-13460514D02*
X10488393Y-13460514D01*
X10516964Y-13474800D01*
X10531250Y-13489086D01*
X10545536Y-13517657D01*
X10559821Y-13574800D01*
X10559821Y-13646228D01*
X10545536Y-13703371D01*
X10531250Y-13731943D01*
X10516964Y-13746228D01*
X10488393Y-13760514D01*
X10459821Y-13760514D01*
X10431250Y-13746228D01*
X10416964Y-13731943D01*
X10402679Y-13703371D01*
X10388393Y-13646228D01*
X10388393Y-13574800D01*
X10402679Y-13517657D01*
X10416964Y-13489086D01*
X10431250Y-13474800D01*
X10459821Y-13460514D01*
X10688393Y-13760514D02*
X10688393Y-13560514D01*
X10688393Y-13589086D02*
X10702679Y-13574800D01*
X10731250Y-13560514D01*
X10774107Y-13560514D01*
X10802679Y-13574800D01*
X10816964Y-13603371D01*
X10816964Y-13760514D01*
X10816964Y-13603371D02*
X10831250Y-13574800D01*
X10859821Y-13560514D01*
X10902679Y-13560514D01*
X10931250Y-13574800D01*
X10945536Y-13603371D01*
X10945536Y-13760514D01*
X11088393Y-13760514D02*
X11088393Y-13560514D01*
X11088393Y-13589086D02*
X11102679Y-13574800D01*
X11131250Y-13560514D01*
X11174107Y-13560514D01*
X11202678Y-13574800D01*
X11216964Y-13603371D01*
X11216964Y-13760514D01*
X11216964Y-13603371D02*
X11231250Y-13574800D01*
X11259821Y-13560514D01*
X11302678Y-13560514D01*
X11331250Y-13574800D01*
X11345536Y-13603371D01*
X11345536Y-13760514D01*
X11931250Y-13446228D02*
X11674107Y-13831943D01*
X12316964Y-13460514D02*
X12345536Y-13460514D01*
X12374107Y-13474800D01*
X12388393Y-13489086D01*
X12402678Y-13517657D01*
X12416964Y-13574800D01*
X12416964Y-13646228D01*
X12402678Y-13703371D01*
X12388393Y-13731943D01*
X12374107Y-13746228D01*
X12345536Y-13760514D01*
X12316964Y-13760514D01*
X12288393Y-13746228D01*
X12274107Y-13731943D01*
X12259821Y-13703371D01*
X12245536Y-13646228D01*
X12245536Y-13574800D01*
X12259821Y-13517657D01*
X12274107Y-13489086D01*
X12288393Y-13474800D01*
X12316964Y-13460514D01*
X12545536Y-13731943D02*
X12559821Y-13746228D01*
X12545536Y-13760514D01*
X12531250Y-13746228D01*
X12545536Y-13731943D01*
X12545536Y-13760514D01*
X12745536Y-13460514D02*
X12774107Y-13460514D01*
X12802678Y-13474800D01*
X12816964Y-13489086D01*
X12831250Y-13517657D01*
X12845536Y-13574800D01*
X12845536Y-13646228D01*
X12831250Y-13703371D01*
X12816964Y-13731943D01*
X12802678Y-13746228D01*
X12774107Y-13760514D01*
X12745536Y-13760514D01*
X12716964Y-13746228D01*
X12702678Y-13731943D01*
X12688393Y-13703371D01*
X12674107Y-13646228D01*
X12674107Y-13574800D01*
X12688393Y-13517657D01*
X12702678Y-13489086D01*
X12716964Y-13474800D01*
X12745536Y-13460514D01*
X12945536Y-13460514D02*
X13131250Y-13460514D01*
X13031250Y-13574800D01*
X13074107Y-13574800D01*
X13102678Y-13589086D01*
X13116964Y-13603371D01*
X13131250Y-13631943D01*
X13131250Y-13703371D01*
X13116964Y-13731943D01*
X13102678Y-13746228D01*
X13074107Y-13760514D01*
X12988393Y-13760514D01*
X12959821Y-13746228D01*
X12945536Y-13731943D01*
X13416964Y-13760514D02*
X13245536Y-13760514D01*
X13331250Y-13760514D02*
X13331250Y-13460514D01*
X13302678Y-13503371D01*
X13274107Y-13531943D01*
X13245536Y-13546228D01*
X13688393Y-13460514D02*
X13545536Y-13460514D01*
X13531250Y-13603371D01*
X13545536Y-13589086D01*
X13574107Y-13574800D01*
X13645536Y-13574800D01*
X13674107Y-13589086D01*
X13688393Y-13603371D01*
X13702678Y-13631943D01*
X13702678Y-13703371D01*
X13688393Y-13731943D01*
X13674107Y-13746228D01*
X13645536Y-13760514D01*
X13574107Y-13760514D01*
X13545536Y-13746228D01*
X13531250Y-13731943D01*
X13816964Y-13460514D02*
X13816964Y-13517657D01*
X13931250Y-13460514D02*
X13931250Y-13517657D01*
X14374107Y-13874800D02*
X14359821Y-13860514D01*
X14331250Y-13817657D01*
X14316964Y-13789086D01*
X14302678Y-13746228D01*
X14288393Y-13674800D01*
X14288393Y-13617657D01*
X14302678Y-13546228D01*
X14316964Y-13503371D01*
X14331250Y-13474800D01*
X14359821Y-13431943D01*
X14374107Y-13417657D01*
X14645536Y-13760514D02*
X14474107Y-13760514D01*
X14559821Y-13760514D02*
X14559821Y-13460514D01*
X14531250Y-13503371D01*
X14502678Y-13531943D01*
X14474107Y-13546228D01*
X14831250Y-13460514D02*
X14859821Y-13460514D01*
X14888393Y-13474800D01*
X14902678Y-13489086D01*
X14916964Y-13517657D01*
X14931250Y-13574800D01*
X14931250Y-13646228D01*
X14916964Y-13703371D01*
X14902678Y-13731943D01*
X14888393Y-13746228D01*
X14859821Y-13760514D01*
X14831250Y-13760514D01*
X14802678Y-13746228D01*
X14788393Y-13731943D01*
X14774107Y-13703371D01*
X14759821Y-13646228D01*
X14759821Y-13574800D01*
X14774107Y-13517657D01*
X14788393Y-13489086D01*
X14802678Y-13474800D01*
X14831250Y-13460514D01*
X15045536Y-13489086D02*
X15059821Y-13474800D01*
X15088393Y-13460514D01*
X15159821Y-13460514D01*
X15188393Y-13474800D01*
X15202678Y-13489086D01*
X15216964Y-13517657D01*
X15216964Y-13546228D01*
X15202678Y-13589086D01*
X15031250Y-13760514D01*
X15216964Y-13760514D01*
X15574107Y-13760514D02*
X15574107Y-13460514D01*
X15702678Y-13760514D02*
X15702678Y-13603371D01*
X15688393Y-13574800D01*
X15659821Y-13560514D01*
X15616964Y-13560514D01*
X15588393Y-13574800D01*
X15574107Y-13589086D01*
X15888393Y-13760514D02*
X15859821Y-13746228D01*
X15845536Y-13731943D01*
X15831250Y-13703371D01*
X15831250Y-13617657D01*
X15845536Y-13589086D01*
X15859821Y-13574800D01*
X15888393Y-13560514D01*
X15931250Y-13560514D01*
X15959821Y-13574800D01*
X15974107Y-13589086D01*
X15988393Y-13617657D01*
X15988393Y-13703371D01*
X15974107Y-13731943D01*
X15959821Y-13746228D01*
X15931250Y-13760514D01*
X15888393Y-13760514D01*
X16159821Y-13760514D02*
X16131250Y-13746228D01*
X16116964Y-13717657D01*
X16116964Y-13460514D01*
X16388393Y-13746228D02*
X16359821Y-13760514D01*
X16302678Y-13760514D01*
X16274107Y-13746228D01*
X16259821Y-13717657D01*
X16259821Y-13603371D01*
X16274107Y-13574800D01*
X16302678Y-13560514D01*
X16359821Y-13560514D01*
X16388393Y-13574800D01*
X16402678Y-13603371D01*
X16402678Y-13631943D01*
X16259821Y-13660514D01*
X16516964Y-13746228D02*
X16545536Y-13760514D01*
X16602678Y-13760514D01*
X16631250Y-13746228D01*
X16645536Y-13717657D01*
X16645536Y-13703371D01*
X16631250Y-13674800D01*
X16602678Y-13660514D01*
X16559821Y-13660514D01*
X16531250Y-13646228D01*
X16516964Y-13617657D01*
X16516964Y-13603371D01*
X16531250Y-13574800D01*
X16559821Y-13560514D01*
X16602678Y-13560514D01*
X16631250Y-13574800D01*
X16745536Y-13874800D02*
X16759821Y-13860514D01*
X16788393Y-13817657D01*
X16802679Y-13789086D01*
X16816964Y-13746228D01*
X16831250Y-13674800D01*
X16831250Y-13617657D01*
X16816964Y-13546228D01*
X16802679Y-13503371D01*
X16788393Y-13474800D01*
X16759821Y-13431943D01*
X16745536Y-13417657D01*
X9066250Y-14070800D02*
X9116250Y-14020800D01*
X9066250Y-13970800D01*
X9016250Y-14020800D01*
X9066250Y-14070800D01*
X9559821Y-14156514D02*
X9388393Y-14156514D01*
X9474107Y-14156514D02*
X9474107Y-13856514D01*
X9445536Y-13899371D01*
X9416964Y-13927943D01*
X9388393Y-13942228D01*
X9688393Y-14127943D02*
X9702679Y-14142228D01*
X9688393Y-14156514D01*
X9674107Y-14142228D01*
X9688393Y-14127943D01*
X9688393Y-14156514D01*
X9888393Y-13856514D02*
X9916964Y-13856514D01*
X9945536Y-13870800D01*
X9959821Y-13885086D01*
X9974107Y-13913657D01*
X9988393Y-13970800D01*
X9988393Y-14042228D01*
X9974107Y-14099371D01*
X9959821Y-14127943D01*
X9945536Y-14142228D01*
X9916964Y-14156514D01*
X9888393Y-14156514D01*
X9859821Y-14142228D01*
X9845536Y-14127943D01*
X9831250Y-14099371D01*
X9816964Y-14042228D01*
X9816964Y-13970800D01*
X9831250Y-13913657D01*
X9845536Y-13885086D01*
X9859821Y-13870800D01*
X9888393Y-13856514D01*
X10174107Y-13856514D02*
X10202679Y-13856514D01*
X10231250Y-13870800D01*
X10245536Y-13885086D01*
X10259821Y-13913657D01*
X10274107Y-13970800D01*
X10274107Y-14042228D01*
X10259821Y-14099371D01*
X10245536Y-14127943D01*
X10231250Y-14142228D01*
X10202679Y-14156514D01*
X10174107Y-14156514D01*
X10145536Y-14142228D01*
X10131250Y-14127943D01*
X10116964Y-14099371D01*
X10102679Y-14042228D01*
X10102679Y-13970800D01*
X10116964Y-13913657D01*
X10131250Y-13885086D01*
X10145536Y-13870800D01*
X10174107Y-13856514D01*
X10459821Y-13856514D02*
X10488393Y-13856514D01*
X10516964Y-13870800D01*
X10531250Y-13885086D01*
X10545536Y-13913657D01*
X10559821Y-13970800D01*
X10559821Y-14042228D01*
X10545536Y-14099371D01*
X10531250Y-14127943D01*
X10516964Y-14142228D01*
X10488393Y-14156514D01*
X10459821Y-14156514D01*
X10431250Y-14142228D01*
X10416964Y-14127943D01*
X10402679Y-14099371D01*
X10388393Y-14042228D01*
X10388393Y-13970800D01*
X10402679Y-13913657D01*
X10416964Y-13885086D01*
X10431250Y-13870800D01*
X10459821Y-13856514D01*
X10688393Y-14156514D02*
X10688393Y-13956514D01*
X10688393Y-13985086D02*
X10702679Y-13970800D01*
X10731250Y-13956514D01*
X10774107Y-13956514D01*
X10802679Y-13970800D01*
X10816964Y-13999371D01*
X10816964Y-14156514D01*
X10816964Y-13999371D02*
X10831250Y-13970800D01*
X10859821Y-13956514D01*
X10902679Y-13956514D01*
X10931250Y-13970800D01*
X10945536Y-13999371D01*
X10945536Y-14156514D01*
X11088393Y-14156514D02*
X11088393Y-13956514D01*
X11088393Y-13985086D02*
X11102679Y-13970800D01*
X11131250Y-13956514D01*
X11174107Y-13956514D01*
X11202678Y-13970800D01*
X11216964Y-13999371D01*
X11216964Y-14156514D01*
X11216964Y-13999371D02*
X11231250Y-13970800D01*
X11259821Y-13956514D01*
X11302678Y-13956514D01*
X11331250Y-13970800D01*
X11345536Y-13999371D01*
X11345536Y-14156514D01*
X11931250Y-13842228D02*
X11674107Y-14227943D01*
X12316964Y-13856514D02*
X12345536Y-13856514D01*
X12374107Y-13870800D01*
X12388393Y-13885086D01*
X12402678Y-13913657D01*
X12416964Y-13970800D01*
X12416964Y-14042228D01*
X12402678Y-14099371D01*
X12388393Y-14127943D01*
X12374107Y-14142228D01*
X12345536Y-14156514D01*
X12316964Y-14156514D01*
X12288393Y-14142228D01*
X12274107Y-14127943D01*
X12259821Y-14099371D01*
X12245536Y-14042228D01*
X12245536Y-13970800D01*
X12259821Y-13913657D01*
X12274107Y-13885086D01*
X12288393Y-13870800D01*
X12316964Y-13856514D01*
X12545536Y-14127943D02*
X12559821Y-14142228D01*
X12545536Y-14156514D01*
X12531250Y-14142228D01*
X12545536Y-14127943D01*
X12545536Y-14156514D01*
X12745536Y-13856514D02*
X12774107Y-13856514D01*
X12802678Y-13870800D01*
X12816964Y-13885086D01*
X12831250Y-13913657D01*
X12845536Y-13970800D01*
X12845536Y-14042228D01*
X12831250Y-14099371D01*
X12816964Y-14127943D01*
X12802678Y-14142228D01*
X12774107Y-14156514D01*
X12745536Y-14156514D01*
X12716964Y-14142228D01*
X12702678Y-14127943D01*
X12688393Y-14099371D01*
X12674107Y-14042228D01*
X12674107Y-13970800D01*
X12688393Y-13913657D01*
X12702678Y-13885086D01*
X12716964Y-13870800D01*
X12745536Y-13856514D01*
X12945536Y-13856514D02*
X13131250Y-13856514D01*
X13031250Y-13970800D01*
X13074107Y-13970800D01*
X13102678Y-13985086D01*
X13116964Y-13999371D01*
X13131250Y-14027943D01*
X13131250Y-14099371D01*
X13116964Y-14127943D01*
X13102678Y-14142228D01*
X13074107Y-14156514D01*
X12988393Y-14156514D01*
X12959821Y-14142228D01*
X12945536Y-14127943D01*
X13274107Y-14156514D02*
X13331250Y-14156514D01*
X13359821Y-14142228D01*
X13374107Y-14127943D01*
X13402678Y-14085086D01*
X13416964Y-14027943D01*
X13416964Y-13913657D01*
X13402678Y-13885086D01*
X13388393Y-13870800D01*
X13359821Y-13856514D01*
X13302678Y-13856514D01*
X13274107Y-13870800D01*
X13259821Y-13885086D01*
X13245536Y-13913657D01*
X13245536Y-13985086D01*
X13259821Y-14013657D01*
X13274107Y-14027943D01*
X13302678Y-14042228D01*
X13359821Y-14042228D01*
X13388393Y-14027943D01*
X13402678Y-14013657D01*
X13416964Y-13985086D01*
X13674107Y-13956514D02*
X13674107Y-14156514D01*
X13602678Y-13842228D02*
X13531250Y-14056514D01*
X13716964Y-14056514D01*
X13816964Y-13856514D02*
X13816964Y-13913657D01*
X13931250Y-13856514D02*
X13931250Y-13913657D01*
X14374107Y-14270800D02*
X14359821Y-14256514D01*
X14331250Y-14213657D01*
X14316964Y-14185086D01*
X14302678Y-14142228D01*
X14288393Y-14070800D01*
X14288393Y-14013657D01*
X14302678Y-13942228D01*
X14316964Y-13899371D01*
X14331250Y-13870800D01*
X14359821Y-13827943D01*
X14374107Y-13813657D01*
X14645536Y-14156514D02*
X14474107Y-14156514D01*
X14559821Y-14156514D02*
X14559821Y-13856514D01*
X14531250Y-13899371D01*
X14502678Y-13927943D01*
X14474107Y-13942228D01*
X14916964Y-13856514D02*
X14774107Y-13856514D01*
X14759821Y-13999371D01*
X14774107Y-13985086D01*
X14802678Y-13970800D01*
X14874107Y-13970800D01*
X14902678Y-13985086D01*
X14916964Y-13999371D01*
X14931250Y-14027943D01*
X14931250Y-14099371D01*
X14916964Y-14127943D01*
X14902678Y-14142228D01*
X14874107Y-14156514D01*
X14802678Y-14156514D01*
X14774107Y-14142228D01*
X14759821Y-14127943D01*
X15288393Y-14156514D02*
X15288393Y-13856514D01*
X15416964Y-14156514D02*
X15416964Y-13999371D01*
X15402678Y-13970800D01*
X15374107Y-13956514D01*
X15331250Y-13956514D01*
X15302678Y-13970800D01*
X15288393Y-13985086D01*
X15602678Y-14156514D02*
X15574107Y-14142228D01*
X15559821Y-14127943D01*
X15545536Y-14099371D01*
X15545536Y-14013657D01*
X15559821Y-13985086D01*
X15574107Y-13970800D01*
X15602678Y-13956514D01*
X15645536Y-13956514D01*
X15674107Y-13970800D01*
X15688393Y-13985086D01*
X15702678Y-14013657D01*
X15702678Y-14099371D01*
X15688393Y-14127943D01*
X15674107Y-14142228D01*
X15645536Y-14156514D01*
X15602678Y-14156514D01*
X15874107Y-14156514D02*
X15845536Y-14142228D01*
X15831250Y-14113657D01*
X15831250Y-13856514D01*
X16102678Y-14142228D02*
X16074107Y-14156514D01*
X16016964Y-14156514D01*
X15988393Y-14142228D01*
X15974107Y-14113657D01*
X15974107Y-13999371D01*
X15988393Y-13970800D01*
X16016964Y-13956514D01*
X16074107Y-13956514D01*
X16102678Y-13970800D01*
X16116964Y-13999371D01*
X16116964Y-14027943D01*
X15974107Y-14056514D01*
X16231250Y-14142228D02*
X16259821Y-14156514D01*
X16316964Y-14156514D01*
X16345536Y-14142228D01*
X16359821Y-14113657D01*
X16359821Y-14099371D01*
X16345536Y-14070800D01*
X16316964Y-14056514D01*
X16274107Y-14056514D01*
X16245536Y-14042228D01*
X16231250Y-14013657D01*
X16231250Y-13999371D01*
X16245536Y-13970800D01*
X16274107Y-13956514D01*
X16316964Y-13956514D01*
X16345536Y-13970800D01*
X16459821Y-14270800D02*
X16474107Y-14256514D01*
X16502678Y-14213657D01*
X16516964Y-14185086D01*
X16531250Y-14142228D01*
X16545536Y-14070800D01*
X16545536Y-14013657D01*
X16531250Y-13942228D01*
X16516964Y-13899371D01*
X16502678Y-13870800D01*
X16474107Y-13827943D01*
X16459821Y-13813657D01*
M02*
