M48
; DRILL file {KiCad (5.1.10)-1} date 08/23/22 18:53:12
; FORMAT={-:-/ absolute / inch / decimal}
; #@! TF.CreationDate,2022-08-23T18:53:12-04:00
; #@! TF.GenerationSoftware,Kicad,Pcbnew,(5.1.10)-1
; #@! TF.FileFunction,Plated,1,2,PTH
FMAT,2
INCH
T1C0.0138
T2C0.0157
T3C0.0256
T4C0.0315
T5C0.0394
%
G90
G05
T1
X3.67Y-2.9075
X3.6875Y-2.7975
X3.7025Y-3.0925
X3.735Y-3.404
X3.7575Y-3.4225
X3.7675Y-3.58
X3.78Y-3.44
X3.7925Y-3.6075
X3.8075Y-3.305
X3.8125Y-2.8825
X3.8175Y-3.59
X3.8225Y-3.1975
X3.8525Y-2.7425
X3.8525Y-3.415
X3.8732Y-3.0068
X3.8812Y-3.7288
X3.8822Y-3.6637
X3.8825Y-3.47
X3.8988Y-3.1088
X3.9Y-2.29
X3.9Y-2.89
X3.915Y-3.47
X3.944Y-2.979
X3.9475Y-3.4975
X3.95Y-2.2875
X3.9598Y-3.6977
X3.97Y-3.475
X3.9756Y-2.9097
X3.9825Y-3.72
X3.985Y-3.6675
X3.995Y-2.755
X3.995Y-3.4525
X4.0Y-4.1375
X4.0012Y-2.9313
X4.005Y-3.7425
X4.01Y-2.98
X4.0175Y-3.655
X4.0225Y-4.115
X4.04Y-3.6775
X4.042Y-4.323
X4.045Y-4.0925
X4.0625Y-3.7
X4.065Y-2.825
X4.0675Y-4.07
X4.085Y-3.7225
X4.0975Y-4.0475
X4.0975Y-4.1875
X4.1075Y-3.745
X4.115Y-2.705
X4.13Y-4.0025
X4.135Y-4.37
X4.1375Y-3.2825
X4.1525Y-4.025
X4.2225Y-3.065
X4.2275Y-2.575
X4.2575Y-3.4975
X4.2625Y-4.36
X4.2925Y-4.1375
X4.2989Y-2.9097
X4.315Y-4.115
X4.3175Y-2.5525
X4.3175Y-3.12
X4.3275Y-3.51
X4.3309Y-3.4591
X4.3375Y-4.0925
X4.3425Y-2.98
X4.355Y-3.31
X4.36Y-4.07
X4.3718Y-3.0068
X4.3756Y-2.9097
X4.3825Y-4.0475
X4.4012Y-3.0063
X4.405Y-2.53
X4.405Y-4.025
X4.425Y-2.955
X4.4275Y-2.7375
X4.4504Y-3.3479
X4.46Y-3.985
X4.4725Y-3.72
X4.4825Y-3.8325
X4.49Y-3.81
X4.495Y-3.6975
X4.5025Y-3.325
X4.504Y-2.53
X4.505Y-3.7875
X4.5075Y-3.2
X4.515Y-3.3
X4.5175Y-3.675
X4.525Y-3.765
X4.54Y-3.6525
X4.545Y-3.7425
X4.55Y-2.5846
X4.5625Y-3.63
X4.585Y-3.6075
X4.5875Y-3.2975
X4.6075Y-3.585
X4.6175Y-2.5525
X4.6325Y-3.5625
X4.635Y-4.445
X4.6525Y-3.055
X4.655Y-3.54
X4.6675Y-2.785
X4.69Y-2.955
X4.6975Y-2.8797
X4.7025Y-2.625
X4.7025Y-2.74
X4.7041Y-2.5299
X4.7244Y-2.8794
X4.7244Y-3.1044
X4.745Y-2.7475
X4.7488Y-2.9313
X4.7743Y-3.1057
X4.7787Y-4.1938
X4.785Y-4.375
X4.7975Y-3.96
X4.8012Y-2.7972
X4.805Y-2.98
X4.805Y-3.5175
X4.8075Y-2.5375
X4.81Y-4.175
X4.8291Y-3.4591
X4.8375Y-2.995
X4.8375Y-3.2775
X4.8525Y-3.3025
X4.8525Y-4.1525
X4.855Y-2.5575
X4.865Y-3.0075
X4.865Y-3.195
X4.8725Y-2.7075
X4.8871Y-3.3479
X4.895Y-2.6275
X4.91Y-4.13
X4.91Y-4.325
X4.9125Y-3.2775
X4.9225Y-3.0975
X4.93Y-2.62
X4.9325Y-2.7375
X4.9325Y-2.895
X4.9325Y-2.985
X4.9396Y-3.3479
X4.94Y-4.1075
X4.9425Y-4.4425
X4.955Y-2.72
X4.955Y-2.9175
X4.955Y-3.0525
X4.955Y-4.085
X4.9675Y-2.7575
X4.97Y-4.0625
X4.9775Y-3.03
X4.985Y-4.04
X5.025Y-2.45
X5.0625Y-2.94
X5.0675Y-4.3925
X5.0825Y-2.985
X5.0975Y-4.4425
X5.1Y-2.555
X5.125Y-2.72
X5.1375Y-3.195
X5.1375Y-3.375
X5.145Y-2.8731
X5.145Y-2.9625
X5.1868Y-3.4807
X5.195Y-2.72
X5.195Y-2.8731
X5.2Y-2.555
X5.2025Y-4.2775
X5.2275Y-3.515
X5.235Y-3.555
X5.235Y-3.58
X5.235Y-3.605
X5.235Y-3.63
X5.235Y-3.655
X5.235Y-3.68
X5.235Y-3.705
X5.235Y-3.73
X5.235Y-3.755
X5.235Y-3.8325
X5.235Y-3.8575
X5.235Y-3.8825
X5.2361Y-3.8064
X5.2363Y-3.7812
X5.24Y-3.325
X5.2425Y-3.075
X5.2496Y-2.8954
X5.2694Y-2.8731
X5.295Y-2.72
X5.295Y-3.0975
X5.3Y-2.555
X5.345Y-2.72
X5.3475Y-3.95
X5.3475Y-3.995
X5.35Y-3.905
X5.3575Y-4.0175
X5.365Y-3.9275
X5.365Y-3.9725
X5.4Y-2.2
X5.4Y-2.555
X5.415Y-4.45
X5.425Y-3.525
X5.4325Y-2.94
X5.45Y-2.455
X5.4525Y-2.175
X5.455Y-2.965
X5.4925Y-2.89
X5.5Y-2.225
X5.5Y-2.555
X5.5Y-2.74
X5.5025Y-4.2925
X5.55Y-2.915
X5.5525Y-2.625
X5.5525Y-2.7125
X5.57Y-4.4675
X5.5775Y-2.4575
X5.6Y-2.555
X5.605Y-2.1
X5.605Y-2.94
X5.6225Y-2.4425
X5.6575Y-4.055
X5.675Y-2.405
X5.68Y-2.175
X5.6825Y-4.295
X5.7Y-2.555
X5.725Y-2.4
X5.73Y-4.075
X5.7575Y-4.075
X5.775Y-2.175
X5.775Y-2.4025
X5.785Y-4.075
X5.7875Y-3.0625
X5.8Y-2.555
X5.805Y-4.3825
X5.8125Y-4.075
X5.8175Y-2.175
X5.8335Y-3.0385
X5.845Y-2.8325
X5.8475Y-2.715
X5.8575Y-2.175
X5.86Y-4.0525
X5.9225Y-2.4475
X5.94Y-4.27
X5.9475Y-2.525
X5.96Y-2.0075
X5.97Y-4.15
X5.97Y-4.185
X5.97Y-4.22
X5.975Y-2.31
X5.99Y-2.445
X5.99Y-4.3525
X6.0275Y-2.995
X6.04Y-4.45
X6.045Y-3.515
X6.0725Y-4.115
X6.0775Y-3.01
X6.0875Y-2.405
X6.105Y-4.35
X6.1086Y-2.4511
X6.1425Y-3.515
X6.145Y-2.185
X6.15Y-2.15
X6.16Y-3.0375
X6.175Y-4.125
X6.2Y-4.255
X6.2225Y-3.5175
X6.2425Y-4.4025
X6.25Y-3.755
X6.2575Y-3.025
X6.2725Y-3.5175
X6.275Y-4.115
X6.3Y-4.22
X6.3225Y-3.515
X6.3225Y-3.97
X6.325Y-4.115
X6.35Y-3.73
X6.37Y-3.0225
X6.3725Y-3.515
X6.385Y-4.415
X6.4Y-2.1
X6.4Y-4.15
X6.4Y-4.24
X6.42Y-3.51
X6.4225Y-3.96
X6.4425Y-3.02
X6.45Y-3.705
X6.475Y-3.51
X6.5Y-2.82
X6.525Y-4.435
X6.5375Y-3.9775
X6.5475Y-3.015
X6.5525Y-3.5125
X6.5625Y-3.915
X6.6Y-4.185
X6.6Y-4.2375
X6.6225Y-3.5175
X6.645Y-3.015
X6.65Y-3.68
X6.6625Y-4.4475
X6.6725Y-3.51
X6.7Y-2.69
X6.7275Y-3.975
X6.745Y-3.895
X6.7475Y-3.02
X6.7475Y-3.52
X6.7675Y-3.83
X6.775Y-4.2375
X6.8Y-4.275
X6.8225Y-3.5175
X6.825Y-4.2375
X6.85Y-3.655
X6.8725Y-3.5175
X6.9Y-4.215
X6.9225Y-3.5175
X6.95Y-3.63
X6.9507Y-4.3907
X6.965Y-4.4375
X6.9725Y-3.5175
X6.985Y-4.18
X6.985Y-4.23
X6.985Y-4.285
X7.015Y-4.24
X7.0225Y-3.5175
X7.05Y-3.605
X7.0525Y-4.42
X7.0725Y-3.5175
X7.12Y-3.5125
X7.15Y-3.58
X7.1725Y-3.625
X7.22Y-3.605
T2
X3.5436Y-2.8344
X3.544Y-2.98
X3.65Y-4.2
X3.9825Y-3.1925
X4.04Y-3.1225
X4.1525Y-2.38
X4.2016Y-2.8059
X4.233Y-2.679
X4.245Y-3.315
X4.3375Y-3.25
X4.5Y-3.145
X4.55Y-4.14
X4.6078Y-4.2672
X4.66Y-3.25
X4.66Y-4.11
X4.755Y-3.2325
X5.02Y-2.7
X5.03Y-3.2325
X5.2Y-3.2325
X5.8006Y-3.5094
X7.2Y-4.2
T3
X4.95Y-2.0
T4
X3.8375Y-4.1122
X3.8375Y-4.25
X4.25Y-2.0
X4.25Y-2.3
X4.35Y-2.0
X4.35Y-2.3
X4.45Y-2.0
X4.45Y-2.3
X4.55Y-2.0
X4.55Y-2.3
X4.65Y-2.0
X4.65Y-2.3
X4.75Y-2.0
X4.75Y-2.3
X5.1Y-2.0
X5.1Y-2.3
X5.2Y-2.0
X5.2Y-2.3
X5.3Y-2.0
X5.3Y-2.3
X5.4Y-2.0
X5.4Y-2.3
X5.5Y-2.0
X5.5Y-2.3
X5.6Y-2.0
X5.6Y-2.3
X5.7Y-2.0
X5.7Y-2.3
X5.8Y-2.0
X5.8Y-2.3
X5.95Y-2.725
X5.95Y-3.325
X5.95Y-3.45
X5.95Y-4.05
X6.05Y-2.725
X6.05Y-3.325
X6.05Y-3.45
X6.05Y-4.05
X6.15Y-2.0
X6.15Y-2.3
X6.15Y-2.725
X6.15Y-3.325
X6.15Y-3.45
X6.15Y-4.05
X6.25Y-2.0
X6.25Y-2.3
X6.25Y-2.725
X6.25Y-3.325
X6.25Y-3.45
X6.25Y-4.05
X6.35Y-2.0
X6.35Y-2.3
X6.35Y-2.725
X6.35Y-3.325
X6.35Y-3.45
X6.35Y-4.05
X6.45Y-2.0
X6.45Y-2.3
X6.45Y-2.725
X6.45Y-3.325
X6.45Y-3.45
X6.45Y-4.05
X6.55Y-2.0
X6.55Y-2.3
X6.55Y-2.725
X6.55Y-3.325
X6.55Y-3.45
X6.55Y-4.05
X6.65Y-2.0
X6.65Y-2.3
X6.65Y-2.725
X6.65Y-3.325
X6.65Y-3.45
X6.65Y-4.05
X6.75Y-2.0
X6.75Y-2.3
X6.75Y-2.725
X6.75Y-3.325
X6.75Y-3.45
X6.75Y-4.05
X6.85Y-2.0
X6.85Y-2.3
X6.85Y-2.725
X6.85Y-3.325
X6.85Y-3.45
X6.85Y-4.05
X6.95Y-2.725
X6.95Y-3.325
X6.95Y-3.45
X6.95Y-4.05
X7.05Y-2.725
X7.05Y-3.325
X7.05Y-3.45
X7.05Y-4.05
X7.15Y-2.725
X7.15Y-3.325
X7.15Y-3.45
X7.15Y-4.05
X7.25Y-2.725
X7.25Y-3.325
X7.25Y-3.45
X7.25Y-4.05
T5
X3.675Y-3.175
X3.675Y-3.275
X3.675Y-3.375
X3.675Y-3.475
X3.675Y-3.575
X3.675Y-3.675
X3.675Y-3.775
X3.675Y-3.875
X3.7191Y-2.0478
X3.7191Y-2.225
X3.975Y-2.0478
X3.975Y-2.225
X7.1Y-2.25
X7.2Y-2.25
X7.3Y-2.25
T0
M30
